<svg width="41" height="28" viewBox="0 0 41 28" fill="none" xmlns="http://www.w3.org/2000/svg">
<g id="ICO">
<path id="Union" fill-rule="evenodd" clip-rule="evenodd" d="M19.3044 25.8721C17.6846 26.5969 15.8894 27 14 27C6.82029 27 1 21.1797 1 14C1 6.8203 6.82029 1 14 1C15.8894 1 17.6846 1.40305 19.3044 2.12787C15.3543 4.60295 12.7276 8.99473 12.7276 14C12.7276 19.0053 15.3543 23.397 19.3044 25.8721ZM20.3638 25.3385C16.4031 23.1108 13.7276 18.8678 13.7276 14C13.7276 9.13216 16.4031 4.88923 20.3638 2.66149C24.3245 4.88923 27 9.13216 27 14C27 18.8678 24.3245 23.1108 20.3638 25.3385ZM20.3638 26.4734C18.4545 27.4494 16.2915 28 14 28C6.26801 28 0 21.732 0 14C0 6.26801 6.26801 0 14 0C16.2915 0 18.4545 0.550563 20.3638 1.52663C22.2731 0.550563 24.4361 0 26.7276 0C34.4596 0 40.7276 6.26801 40.7276 14C40.7276 21.732 34.4596 28 26.7276 28C24.4361 28 22.2731 27.4494 20.3638 26.4734ZM21.4232 2.12787C23.043 1.40306 24.8383 1 26.7276 1C33.9073 1 39.7276 6.8203 39.7276 14C39.7276 21.1797 33.9073 27 26.7276 27C24.8383 27 23.043 26.5969 21.4232 25.8721C25.3733 23.397 28 19.0053 28 14C28 8.99473 25.3733 4.60295 21.4232 2.12787Z" fill="#131A31"/>
</g>
</svg>
