<svg width="164" height="57" viewBox="0 0 164 57" fill="none" xmlns="http://www.w3.org/2000/svg">
<path d="M163.521 12.5721V14.0825C163.521 14.2264 163.419 14.3402 163.287 14.3702C161.707 14.7358 160.21 16.0844 159.049 18.6797L146.97 46.0229C144.252 52.7239 140.619 56.0744 136.076 56.0744C134.25 56.0744 132.76 55.6788 131.604 54.8876C130.449 54.0964 129.868 53.0475 129.868 51.7529C129.868 50.6141 130.246 49.6431 130.994 48.828C131.742 48.0128 132.688 47.6113 133.825 47.6113C134.31 47.6113 134.777 47.6952 135.226 47.857C135.675 48.0188 136.201 48.2406 136.806 48.5283C138.266 49.2595 139.541 49.6251 140.637 49.6251C141.648 49.6251 142.54 49.2775 143.313 48.5882C144.085 47.899 144.755 46.8201 145.318 45.3576L145.928 43.8952L134.304 18.8355C133.143 16.2462 131.802 14.7598 130.275 14.3762C130.138 14.3402 130.042 14.2264 130.042 14.0885V12.5721C130.042 12.4043 130.174 12.2724 130.341 12.2724H145.743C145.91 12.2724 146.042 12.4043 146.042 12.5721V14.0585C146.042 14.2084 145.928 14.3342 145.779 14.3522C143.642 14.6339 142.576 15.497 142.576 16.9415C142.576 17.5109 142.72 18.1402 143.001 18.8295L150.058 34.3832L157.146 18.6737C157.511 17.8585 157.846 17.3431 157.846 16.8156C157.846 15.4551 156.858 14.6339 154.883 14.3522C154.733 14.3283 154.62 14.2084 154.62 14.0585V12.5661C154.62 12.3983 154.751 12.2664 154.919 12.2664H163.203C163.371 12.2664 163.503 12.3983 163.503 12.5661L163.521 12.5721Z" fill="#140E0E"/>
<path d="M60.6626 37.4298C59.8545 38.0531 58.9985 38.4966 58.0887 38.7664C57.1848 39.0361 56.4665 39.0601 55.9159 39.072C54.8504 39.102 53.1923 39.15 51.4265 38.2869C49.6667 37.4298 48.7269 36.1291 48.1643 35.35C47.1287 33.9115 46.7277 32.6048 46.2907 31.1544C45.9196 29.9017 45.5125 28.0916 45.4407 25.838H64.7449C64.9065 25.838 65.0442 25.7121 65.0502 25.5503C65.1938 21.6484 64.2601 17.4048 62.2369 15.0433C60.1658 12.6278 57.0412 11.4171 52.8691 11.4171C49.9061 11.4171 47.2604 12.1304 44.9259 13.5509C42.5915 14.9714 40.7658 16.9733 39.4489 19.5506C38.1321 22.1279 37.4736 25.0827 37.4736 28.4152C37.4736 31.2203 38.0543 33.8096 39.2095 36.1831C40.3648 38.5566 42.0887 40.4566 44.3812 41.8771C46.6738 43.2976 49.4392 44.0108 52.6895 44.0108C55.9398 44.0108 58.6394 43.0279 60.932 41.056C63.1407 39.1619 64.5115 36.5547 65.0442 33.4979C65.0741 33.3121 64.9305 33.1443 64.7449 33.1443H63.847C63.7213 33.1443 63.6076 33.2282 63.5657 33.3481C62.9851 35.0263 62.0214 36.3869 60.6686 37.4298H60.6626ZM46.0513 19.2868C46.2548 18.6455 46.4583 17.9922 46.9432 17.219C47.2724 16.6916 47.871 15.7386 48.9843 15.1272C49.8223 14.6657 50.798 14.4799 51.0195 14.4439C51.4205 14.372 53.7251 13.9704 55.443 15.4029C56.8317 16.5597 57.0651 18.2799 57.3165 20.1379C57.4841 21.3667 57.4362 22.3976 57.3704 23.1108H45.4467C45.4766 21.4446 45.7879 20.1439 46.0513 19.2868Z" fill="#140E0E"/>
<path d="M77.8786 25.9343C75.5202 26.4198 73.1199 26.9473 70.9949 28.7514C70.0013 29.5965 69.4386 30.3996 69.3009 30.6034C68.2773 32.1318 67.7686 34.0019 67.7686 36.2135C67.7686 38.4911 68.5707 40.3672 70.1689 41.8476C71.773 43.3281 73.7903 44.0713 76.2205 44.0713C78.2916 44.0713 80.1232 43.4899 81.7274 42.3331C83.3316 41.1763 84.5347 39.5221 85.3488 37.3643V37.5441C85.3488 38.9646 85.6721 40.1754 86.3245 41.1703C86.971 42.1653 87.785 42.8965 88.7607 43.364C89.7364 43.8315 90.6882 44.0653 91.6219 44.0653C92.7951 44.0653 94.0043 43.6817 95.2433 42.9085C96.1173 42.3631 96.9014 41.47 97.6077 40.2353C97.6317 40.1874 97.6496 40.1334 97.6496 40.0795V38.7189C97.6496 38.4552 97.3384 38.3173 97.1468 38.4971C96.3687 39.2284 95.8778 39.4022 95.1057 39.4022C94.537 39.4022 94.0821 38.9706 93.7589 38.4851C93.4356 37.9997 93.274 37.3284 93.274 36.4773V22.5059C93.274 19.0536 92.1966 16.3324 90.0477 14.3425C87.8988 12.3526 84.8939 11.3577 81.045 11.3577C78.2437 11.3577 75.8434 11.8072 73.8381 12.7003C71.8329 13.5933 70.3185 14.7441 69.3069 16.1406C68.2893 17.5432 67.7865 18.9936 67.7865 20.4981C67.7865 21.6369 68.0978 22.5059 68.7323 23.1173C69.3608 23.7287 70.1629 24.0283 71.1386 24.0283C72.1921 24.0283 73.054 23.7526 73.7244 23.2072C74.3948 22.6618 74.8497 21.8946 74.8497 20.8337C74.8497 20.4381 74.7959 19.8687 74.5445 19.2753C74.329 18.7779 74.1255 18.634 73.7962 18.3283C73.4132 17.9747 73.2575 17.2075 73.3593 16.788C73.6047 15.811 74.9575 15.0018 75.3406 14.804C76.9927 13.9469 78.7764 14.0428 79.6324 14.0968C80.3686 14.1447 81.2905 14.2107 82.338 14.7381C82.763 14.9479 83.5651 15.3675 84.2115 16.2485C84.7383 16.9678 84.9059 17.6451 85.1094 18.5321C85.283 19.2753 85.4566 20.3902 85.3728 21.7747C85.3728 22.1104 85.2411 22.7936 84.9358 23.363C84.6305 23.9324 83.8943 24.2861 83.607 24.4119C81.3383 25.3589 77.8965 25.9343 77.8965 25.9343H77.8786ZM85.4027 25.6227L85.3787 29.9261C85.3787 29.9261 85.295 33.2227 85.3548 34.2296C84.87 35.4463 84.1995 36.4113 83.3496 37.1246C82.6492 37.706 81.9609 37.9397 81.6795 38.0296C80.8655 38.2874 80.207 38.2814 80.0275 38.2754C79.2972 38.2514 78.519 38.0656 78.2078 37.9517C77.693 37.7659 77.3279 37.5441 76.7652 36.9747C76.1786 36.3814 75.9631 35.728 75.8434 35.3444C75.5441 34.3974 75.6219 33.6063 75.6818 33.1148C75.7297 32.6832 75.8374 31.7782 76.3881 30.8312C77.0705 29.6504 78.0462 29.0571 78.5669 28.7514C80.4405 27.6425 81.464 27.6186 83.4154 26.7914C85.0196 26.1082 85.4147 25.6466 85.4147 25.6466L85.4027 25.6227Z" fill="#140E0E"/>
<path d="M131.469 38.7792C131.469 38.5155 131.152 38.3717 130.966 38.5575C130.313 39.1988 129.697 39.4086 128.919 39.4086C128.35 39.4086 127.895 38.977 127.572 38.4915C127.249 38.006 127.087 37.3347 127.087 36.4836V0.299685C127.081 0.131861 126.949 0 126.782 0H115.822C115.654 0 115.523 0.131861 115.523 0.299685V1.73218C115.523 1.906 115.672 2.03786 115.846 2.02587C116.941 1.96593 117.755 2.16372 118.294 2.63123C118.881 3.1407 119.174 4.12366 119.174 5.58613V13.0663C117.229 11.9275 115.098 11.3581 112.787 11.3581C109.824 11.3581 107.19 12.0713 104.88 13.4918C102.569 14.9123 100.762 16.9322 99.4627 19.5514C98.1638 22.1707 97.5173 25.1855 97.5173 28.5959C97.5173 31.4789 98.0261 34.0922 99.0377 36.4237C100.049 38.7612 101.534 40.6193 103.479 41.9978C105.425 43.3764 107.759 44.0717 110.477 44.0717C112.584 44.0717 114.421 43.4303 115.984 42.1537C117.546 40.877 118.611 39.2587 119.18 37.3108V37.5565C119.18 38.977 119.503 40.1877 120.156 41.1827C120.802 42.1777 121.616 42.9089 122.592 43.3764C123.568 43.8439 124.519 44.0777 125.453 44.0777C126.668 44.0777 127.895 43.6941 129.134 42.9209C129.996 42.3814 130.762 41.5064 131.439 40.2956C131.463 40.2477 131.481 40.1937 131.481 40.1398V38.7852L131.469 38.7792ZM119.174 34.284C118.809 35.5426 118.15 36.5676 117.199 37.3587C116.247 38.1499 115.181 38.5455 114.002 38.5455C111.362 38.5455 109.339 37.2448 107.915 34.6436C106.496 32.0423 105.784 29.9325 105.784 25.9108C105.784 24.5682 105.927 23.5732 105.969 23.2735C106.101 22.3265 106.281 21.0978 106.873 19.6413C107.232 18.7603 107.729 17.3338 109.154 15.9972C110.369 14.8584 111.512 14.4988 111.758 14.4328C112.183 14.3189 112.625 14.259 113.086 14.259C114.99 14.259 116.48 15.1041 117.558 16.7883C118.629 18.4726 119.168 20.4925 119.168 22.848V34.278L119.174 34.284Z" fill="#140E0E"/>
<path d="M39.1231 41.0409C38.8059 40.951 38.4168 40.8251 37.9798 40.6513C36.6211 40.1179 35.6993 39.4706 35.1067 39.057C34.4063 38.5655 33.3887 37.7324 32.6226 36.6475C29.923 32.8415 25.6611 25.6731 24.6076 23.887C25.3618 23.7551 26.0502 23.6172 26.6487 23.4794C29.6895 22.7781 31.9641 21.2377 33.5863 19.3078C35.2084 17.3778 36.0225 15.0343 36.0225 12.2712C36.0225 8.41123 34.5081 5.40838 31.4913 3.25665C28.4684 1.09892 24.2544 0.02005 18.8612 0.02005H0.29929C0.131687 0.02005 0 0.157905 0 0.319735V1.80617C0 1.95601 0.119716 2.08788 0.269361 2.09986C2.1908 2.31564 3.53162 2.74119 4.29181 3.38251C5.08194 4.05381 5.477 5.19861 5.477 6.8229V36.2879C5.477 37.9542 5.09391 39.1229 4.32174 39.7942C3.58549 40.4356 2.2327 40.8611 0.275346 41.0769C0.125702 41.0949 0.00598579 41.2207 0.00598579 41.3706V42.857C0.00598579 43.0248 0.137673 43.1567 0.305275 43.1567H18.9331C19.1007 43.1567 19.2323 43.0248 19.2323 42.857V41.3706C19.2323 41.2207 19.1126 41.0889 18.963 41.0769C17.0415 40.8671 15.7007 40.4475 14.9465 39.8242C14.1564 39.1769 13.7613 37.9961 13.7613 36.2879V24.5103H15.4972L24.027 38.3557L24.1347 38.5296C25.8945 41.4005 29.0191 43.1507 32.3831 43.1507H39.0513C39.2189 43.1507 39.3506 43.0188 39.3506 42.851V41.3286C39.3506 41.1968 39.2608 41.0769 39.1291 41.0409H39.1231ZM13.7494 2.92699H16.85C17.5204 2.90901 22.0277 2.83709 24.7393 5.82195C25.8167 7.0087 26.4273 8.47116 26.4811 8.59703C26.6248 8.95066 27.1695 10.3472 27.1935 12.2712C27.2054 13.1223 27.2174 14.345 26.6428 15.7295C26.0322 17.192 25.0565 18.0251 24.4879 18.5945C22.1893 20.8961 18.7894 21.6093 16.85 21.6093H13.7494V2.92699Z" fill="#140E0E"/>
</svg>
