<svg width="172" height="45" viewBox="0 0 172 45" fill="none" xmlns="http://www.w3.org/2000/svg">
<path d="M128 10.0109V11.1932C128 11.3058 127.921 11.3949 127.818 11.4184C126.581 11.7046 125.409 12.7602 124.5 14.7918L115.045 36.1954C112.918 41.4407 110.073 44.0634 106.517 44.0634C105.088 44.0634 103.921 43.7538 103.017 43.1345C102.113 42.5151 101.658 41.6941 101.658 40.6807C101.658 39.7893 101.953 39.0292 102.539 38.3911C103.125 37.753 103.865 37.4387 104.755 37.4387C105.135 37.4387 105.5 37.5044 105.852 37.6311C106.203 37.7577 106.615 37.9313 107.089 38.1565C108.232 38.7289 109.23 39.0151 110.087 39.0151C110.879 39.0151 111.577 38.743 112.182 38.2035C112.786 37.6639 113.311 36.8194 113.752 35.6746L114.229 34.5298L105.13 14.9137C104.221 12.8869 103.172 11.7234 101.977 11.4231C101.869 11.3949 101.794 11.3058 101.794 11.1979V10.0109C101.794 9.87952 101.897 9.7763 102.028 9.7763H114.084C114.215 9.7763 114.319 9.87952 114.319 10.0109V11.1744C114.319 11.2917 114.229 11.3903 114.112 11.4043C112.44 11.6248 111.606 12.3004 111.606 13.4312C111.606 13.8769 111.718 14.3695 111.938 14.909L117.463 27.0841L123.01 14.7871C123.296 14.149 123.558 13.7455 123.558 13.3326C123.558 12.2676 122.785 11.6248 121.239 11.4043C121.122 11.3856 121.033 11.2917 121.033 11.1744V10.0062C121.033 9.87482 121.136 9.77161 121.267 9.77161H127.752C127.883 9.77161 127.986 9.87482 127.986 10.0062L128 10.0109Z" fill="#111830"/>
<path d="M47.4853 29.4701C46.8527 29.9581 46.1827 30.3052 45.4705 30.5164C44.763 30.7275 44.2007 30.7463 43.7696 30.7556C42.9356 30.7791 41.6377 30.8166 40.2555 30.141C38.8779 29.4701 38.1423 28.452 37.7019 27.8421C36.8913 26.7161 36.5773 25.6933 36.2353 24.5579C35.9448 23.5773 35.6262 22.1604 35.5699 20.3963H50.6808C50.8073 20.3963 50.9151 20.2978 50.9198 20.1711C51.0322 17.1168 50.3013 13.7951 48.7176 11.9465C47.0964 10.0558 44.6505 9.10803 41.3847 9.10803C39.0654 9.10803 36.9943 9.66635 35.167 10.7783C33.3396 11.8902 31.9105 13.4573 30.8797 15.4747C29.8489 17.4921 29.3335 19.8052 29.3335 22.4138C29.3335 24.6095 29.788 26.6363 30.6923 28.4942C31.5966 30.3522 32.946 31.8394 34.7406 32.9514C36.5352 34.0633 38.6999 34.6216 41.2441 34.6216C43.7884 34.6216 45.9015 33.8522 47.6961 32.3086C49.4251 30.826 50.4981 28.7851 50.9151 26.3923C50.9385 26.2469 50.826 26.1155 50.6808 26.1155H49.978C49.8796 26.1155 49.7905 26.1812 49.7577 26.2751C49.3032 27.5887 48.5489 28.6538 47.4899 29.4701H47.4853ZM36.0479 15.2683C36.2072 14.7663 36.3665 14.2549 36.746 13.6496C37.0037 13.2367 37.4723 12.4908 38.3438 12.0122C38.9998 11.6509 39.7635 11.5055 39.9369 11.4774C40.2508 11.4211 42.0547 11.1067 43.3995 12.228C44.4865 13.1335 44.6693 14.4801 44.866 15.9345C44.9972 16.8963 44.9598 17.7033 44.9082 18.2616H35.5746C35.5981 16.9573 35.8417 15.9392 36.0479 15.2683Z" fill="#111830"/>
<path d="M60.9617 20.4711C59.1156 20.8511 57.2367 21.264 55.5734 22.6762C54.7956 23.3377 54.3551 23.9664 54.2473 24.1259C53.4461 25.3223 53.0479 26.7861 53.0479 28.5174C53.0479 30.3002 53.6757 31.7687 54.9268 32.9276C56.1825 34.0864 57.7615 34.6682 59.6638 34.6682C61.285 34.6682 62.7188 34.2131 63.9745 33.3076C65.2302 32.4021 66.172 31.1072 66.8093 29.4182V29.5589C66.8093 30.6709 67.0623 31.6186 67.573 32.3974C68.079 33.1763 68.7163 33.7486 69.48 34.1146C70.2438 34.4806 70.9888 34.6635 71.7197 34.6635C72.6381 34.6635 73.5845 34.3633 74.5544 33.758C75.2385 33.3311 75.8523 32.632 76.4052 31.6655C76.424 31.628 76.438 31.5858 76.438 31.5435V30.4785C76.438 30.2721 76.1944 30.1642 76.0445 30.3049C75.4353 30.8773 75.0511 31.0134 74.4467 31.0134C74.0016 31.0134 73.6455 30.6756 73.3924 30.2955C73.1394 29.9155 73.0129 29.39 73.0129 28.7238V17.7874C73.0129 15.085 72.1695 12.9549 70.4874 11.3973C68.8053 9.83962 66.4532 9.06079 63.4404 9.06079C61.2475 9.06079 59.3686 9.41267 57.799 10.1117C56.2293 10.8108 55.0439 11.7116 54.252 12.8048C53.4555 13.9026 53.0619 15.038 53.0619 16.2157C53.0619 17.1071 53.3056 17.7874 53.8022 18.266C54.2942 18.7445 54.9221 18.9791 55.6858 18.9791C56.5105 18.9791 57.1852 18.7633 57.71 18.3363C58.2347 17.9094 58.5908 17.3088 58.5908 16.4784C58.5908 16.1688 58.5487 15.723 58.3519 15.2586C58.1832 14.8691 58.0239 14.7565 57.7662 14.5173C57.4663 14.2405 57.3445 13.6399 57.4241 13.3115C57.6162 12.5467 58.6752 11.9134 58.9751 11.7585C60.2683 11.0876 61.6646 11.1627 62.3346 11.2049C62.9109 11.2424 63.6325 11.2941 64.4524 11.7069C64.7851 11.8711 65.413 12.1996 65.919 12.8892C66.3313 13.4522 66.4625 13.9824 66.6218 14.6768C66.7577 15.2586 66.8936 16.1312 66.828 17.215C66.828 17.4777 66.7249 18.0126 66.486 18.4583C66.247 18.904 65.6707 19.1808 65.4458 19.2794C63.67 20.0207 60.9758 20.4711 60.9758 20.4711H60.9617ZM66.8514 20.2271L66.8327 23.5958C66.8327 23.5958 66.7671 26.1762 66.814 26.9644C66.4344 27.9168 65.9096 28.6722 65.2443 29.2305C64.6961 29.6856 64.1573 29.8686 63.937 29.939C63.2998 30.1407 62.7844 30.136 62.6438 30.1313C62.0722 30.1126 61.4631 29.9671 61.2194 29.878C60.8165 29.7325 60.5306 29.5589 60.0902 29.1132C59.631 28.6487 59.4623 28.1373 59.3686 27.8371C59.1344 27.0958 59.1953 26.4765 59.2421 26.0917C59.2796 25.7539 59.364 25.0455 59.795 24.3042C60.3292 23.3799 61.0929 22.9155 61.5006 22.6762C62.9671 21.8082 63.7684 21.7894 65.2958 21.142C66.5516 20.6071 66.8608 20.2459 66.8608 20.2459L66.8514 20.2271Z" fill="#111830"/>
<path d="M102.91 30.5259C102.91 30.3194 102.662 30.2068 102.517 30.3523C102.006 30.8543 101.523 31.0185 100.914 31.0185C100.469 31.0185 100.113 30.6807 99.8601 30.3007C99.607 29.9206 99.4805 29.3952 99.4805 28.7289V0.404996C99.4758 0.273628 99.3728 0.17041 99.2416 0.17041H90.6624C90.5312 0.17041 90.4281 0.273628 90.4281 0.404996V1.52632C90.4281 1.66238 90.5452 1.7656 90.6811 1.75621C91.5385 1.7093 92.1758 1.86412 92.5975 2.23008C93.0567 2.62887 93.2863 3.39832 93.2863 4.5431V10.3984C91.7635 9.50694 90.0954 9.06123 88.2868 9.06123C85.9674 9.06123 83.9058 9.61954 82.0972 10.7315C80.2886 11.8434 78.8735 13.4245 77.8568 15.4748C76.84 17.5251 76.334 19.885 76.334 22.5546C76.334 24.8113 76.7323 26.8569 77.5241 28.682C78.316 30.5118 79.478 31.9662 81.0008 33.0453C82.5236 34.1244 84.3509 34.6687 86.4782 34.6687C88.1275 34.6687 89.5659 34.1666 90.7889 33.1673C92.0118 32.168 92.8458 30.9012 93.2909 29.3764V29.5687C93.2909 30.6807 93.544 31.6284 94.0547 32.4072C94.5607 33.1861 95.1979 33.7585 95.9617 34.1244C96.7254 34.4904 97.4704 34.6733 98.2014 34.6733C99.1525 34.6733 100.113 34.3731 101.083 33.7678C101.758 33.3456 102.357 32.6606 102.887 31.7129C102.906 31.6753 102.92 31.6331 102.92 31.5909V30.5306L102.91 30.5259ZM93.2863 27.0071C93.0004 27.9923 92.485 28.7946 91.74 29.4139C90.995 30.0332 90.161 30.3429 89.238 30.3429C87.1716 30.3429 85.5879 29.3248 84.4728 27.2886C83.3623 25.2524 82.8047 23.6009 82.8047 20.4527C82.8047 19.4018 82.9172 18.623 82.95 18.3884C83.053 17.6471 83.1936 16.6853 83.6575 15.5452C83.9386 14.8555 84.3275 13.7389 85.4427 12.6926C86.3938 11.8012 87.2888 11.5197 87.4809 11.4681C87.8135 11.3789 88.1603 11.332 88.5211 11.332C90.0111 11.332 91.1778 11.9936 92.0212 13.3119C92.8599 14.6303 93.2816 16.2114 93.2816 18.0553V27.0024L93.2863 27.0071Z" fill="#111830"/>
<path d="M30.6247 32.2959C30.3763 32.2256 30.0718 32.127 29.7297 31.991C28.6661 31.5734 27.9445 31.0667 27.4807 30.743C26.9325 30.3583 26.1359 29.7061 25.5362 28.8569C23.423 25.8777 20.0869 20.2664 19.2622 18.8682C19.8526 18.765 20.3914 18.6571 20.86 18.5492C23.2403 18.0003 25.0208 16.7945 26.2905 15.2838C27.5603 13.773 28.1975 11.9386 28.1975 9.77567C28.1975 6.7542 27.0121 4.40365 24.6506 2.71932C22.2844 1.0303 18.9858 0.185791 14.7641 0.185791H0.234277C0.103082 0.185791 0 0.293701 0 0.420377V1.58392C0 1.70122 0.0937107 1.80444 0.210849 1.81382C1.71491 1.98272 2.76447 2.31583 3.35953 2.81785C3.97802 3.34332 4.28726 4.23944 4.28726 5.5109V28.5754C4.28726 29.8797 3.98739 30.7946 3.38296 31.3201C2.80664 31.8221 1.7477 32.1552 0.215535 32.3241C0.0983962 32.3382 0.00468553 32.4367 0.00468553 32.554V33.7175C0.00468553 33.8489 0.107767 33.9521 0.238962 33.9521H14.8203C14.9515 33.9521 15.0546 33.8489 15.0546 33.7175V32.554C15.0546 32.4367 14.9609 32.3335 14.8438 32.3241C13.3397 32.1599 12.2902 31.8315 11.6998 31.3435C11.0813 30.8368 10.772 29.9125 10.772 28.5754V19.3562H12.1308L18.8077 30.1941L18.8921 30.3301C20.2696 32.5774 22.7155 33.9474 25.3487 33.9474H30.5684C30.6996 33.9474 30.8027 33.8442 30.8027 33.7128V32.5211C30.8027 32.4179 30.7324 32.3241 30.6293 32.2959H30.6247ZM10.7627 2.46128H13.1898C13.7146 2.4472 17.2428 2.3909 19.3653 4.72738C20.2087 5.65634 20.6866 6.80112 20.7288 6.89965C20.8413 7.17646 21.2676 8.26963 21.2864 9.77567C21.2958 10.4419 21.3051 11.399 20.8553 12.4828C20.3774 13.6276 19.6136 14.2797 19.1685 14.7254C17.3693 16.5271 14.7079 17.0854 13.1898 17.0854H10.7627V2.46128Z" fill="#111830"/>
<rect x="132" width="40" height="20" rx="10" fill="#111830"/>
<path d="M140.393 4.9H144.072C144.601 4.9 145.078 5.017 145.502 5.251C145.936 5.485 146.274 5.81 146.516 6.226C146.759 6.642 146.88 7.10567 146.88 7.617C146.88 8.137 146.759 8.605 146.516 9.021C146.274 9.437 145.936 9.762 145.502 9.996C145.078 10.23 144.601 10.347 144.072 10.347H141.706V14H140.393V4.9ZM144.072 9.099C144.506 9.099 144.865 8.96033 145.151 8.683C145.437 8.397 145.58 8.04167 145.58 7.617C145.58 7.201 145.433 6.85433 145.138 6.577C144.852 6.291 144.497 6.148 144.072 6.148H141.706V9.099H144.072ZM147.98 4.354H149.241V12.128C149.241 13.1073 149.288 13.7313 149.384 14H147.98V4.354ZM153.755 14.143C153.191 14.143 152.689 14.0087 152.247 13.74C151.813 13.4713 151.475 13.0987 151.233 12.622C150.99 12.1367 150.869 11.5907 150.869 10.984V7.032H152.117V10.906C152.117 11.504 152.294 11.9937 152.65 12.375C153.005 12.7563 153.464 12.947 154.028 12.947C154.643 12.947 155.128 12.739 155.484 12.323C155.839 11.8983 156.03 11.283 156.056 10.477V7.032H157.317V14H156.186V12.752C155.917 13.1853 155.57 13.5277 155.146 13.779C154.73 14.0217 154.266 14.143 153.755 14.143ZM161.436 14.143C160.604 14.143 159.924 13.9393 159.395 13.532C158.867 13.116 158.555 12.57 158.459 11.894L159.811 11.777C159.872 12.167 160.054 12.4747 160.357 12.7C160.661 12.9167 161.042 13.025 161.501 13.025C161.917 13.025 162.242 12.9383 162.476 12.765C162.71 12.583 162.827 12.3447 162.827 12.05C162.827 11.556 162.524 11.2353 161.917 11.088L160.526 10.75C159.989 10.62 159.569 10.425 159.265 10.165C158.962 9.905 158.81 9.51067 158.81 8.982C158.81 8.358 159.044 7.85533 159.512 7.474C159.98 7.084 160.583 6.889 161.319 6.889C162.021 6.889 162.611 7.058 163.087 7.396C163.564 7.734 163.867 8.202 163.997 8.8L162.723 8.969C162.654 8.66567 162.498 8.43167 162.255 8.267C162.013 8.09367 161.705 8.007 161.332 8.007C160.977 8.007 160.691 8.08933 160.474 8.254C160.258 8.41 160.149 8.605 160.149 8.839C160.149 9.27233 160.474 9.567 161.124 9.723L162.58 10.087C163.1 10.217 163.495 10.4163 163.763 10.685C164.041 10.9537 164.179 11.3437 164.179 11.855C164.179 12.557 163.932 13.116 163.438 13.532C162.953 13.9393 162.286 14.143 161.436 14.143Z" fill="#FAF6F4"/>
</svg>
