<svg width="29" height="32" viewBox="0 0 29 32" fill="none" xmlns="http://www.w3.org/2000/svg">
<g id="Layer_1-2">
<path id="Vector" d="M28.4952 30.459C28.2642 30.3935 27.9808 30.3018 27.6625 30.1752C26.6729 29.7867 26.0015 29.3152 25.5698 29.014C25.0598 28.656 24.3186 28.0492 23.7606 27.2591C21.7943 24.487 18.6902 19.2659 17.9229 17.9649C18.4722 17.8689 18.9736 17.7685 19.4095 17.6681C21.6243 17.1573 23.281 16.0354 24.4625 14.6297C25.644 13.224 26.2369 11.5171 26.2369 9.50461C26.2369 6.69323 25.1339 4.50612 22.9366 2.93891C20.7349 1.36733 17.6656 0.581543 13.7375 0.581543H0.217987C0.0959141 0.581543 0 0.681949 0 0.799818V1.88246C0 1.9916 0.0871947 2.08764 0.196188 2.09637C1.59566 2.25353 2.57224 2.56348 3.12593 3.03058C3.70141 3.51952 3.98916 4.35333 3.98916 5.53638V26.9971C3.98916 28.2108 3.71013 29.062 3.14773 29.551C2.61148 30.0181 1.62618 30.328 0.200548 30.4852C0.0915544 30.4983 0.00435973 30.5899 0.00435973 30.6991V31.7817C0.00435973 31.904 0.100274 32 0.222346 32H13.7898C13.9119 32 14.0078 31.904 14.0078 31.7817V30.6991C14.0078 30.5899 13.9206 30.4939 13.8116 30.4852C12.4122 30.3324 11.4356 30.0268 10.8863 29.5728C10.3108 29.1013 10.023 28.2413 10.023 26.9971V18.4189H11.2874L17.5 28.5032L17.5784 28.6298C18.8602 30.7209 21.136 31.9956 23.5862 31.9956H28.4429C28.565 31.9956 28.6609 31.8996 28.6609 31.7774V30.6685C28.6609 30.5725 28.5955 30.4852 28.4996 30.459H28.4952ZM10.0143 2.69881H12.2727C12.7609 2.68571 16.0438 2.63332 18.0188 4.80734C18.8035 5.67171 19.2482 6.73689 19.2875 6.82856C19.3921 7.08613 19.7888 8.10329 19.8063 9.50461C19.815 10.1245 19.8237 11.0151 19.4052 12.0235C18.9605 13.0887 18.2498 13.6955 17.8357 14.1102C16.1615 15.7866 13.6852 16.3061 12.2727 16.3061H10.0143V2.69881Z" fill="#272D15"/>
</g>
</svg>
