<svg width="61" height="60" viewBox="0 0 61 60" fill="none" xmlns="http://www.w3.org/2000/svg">
<path d="M31.8364 1.63631C31.8542 1.54821 31.8636 1.45702 31.8636 1.36364C31.8636 0.610524 31.2531 0 30.5 0C29.7469 0 29.1364 0.610524 29.1364 1.36364C29.1364 1.45702 29.1458 1.54821 29.1636 1.63631L30.5 27.2727L31.8364 1.63631Z" fill="url(#paint0_radial_18_1114)"/>
<path d="M51.5011 10.8888C51.5761 10.8391 51.6472 10.7813 51.7132 10.7153C52.2457 10.1827 52.2457 9.31933 51.7132 8.7868C51.1807 8.25427 50.3173 8.25427 49.7847 8.7868C49.7187 8.85283 49.6609 8.92395 49.6112 8.9989L32.4285 28.0715L51.5011 10.8888Z" fill="url(#paint1_radial_18_1114)"/>
<path d="M58.8637 31.3364C58.9518 31.3542 59.043 31.3636 59.1364 31.3636C59.8895 31.3636 60.5 30.7531 60.5 30C60.5 29.2469 59.8895 28.6364 59.1364 28.6364C59.043 28.6364 58.9518 28.6458 58.8637 28.6636L33.2273 30L58.8637 31.3364Z" fill="url(#paint2_radial_18_1114)"/>
<path d="M49.6112 51.0011C49.6609 51.0761 49.7187 51.1472 49.7847 51.2132C50.3173 51.7457 51.1807 51.7457 51.7132 51.2132C52.2457 50.6807 52.2457 49.8173 51.7132 49.2847C51.6472 49.2187 51.5761 49.1609 51.5011 49.1112L32.4285 31.9285L49.6112 51.0011Z" fill="url(#paint3_radial_18_1114)"/>
<path d="M29.1636 58.3637C29.1458 58.4518 29.1364 58.543 29.1364 58.6364C29.1364 59.3895 29.7469 60 30.5 60C31.2531 60 31.8636 59.3895 31.8636 58.6364C31.8636 58.543 31.8542 58.4518 31.8364 58.3637L30.5 32.7273L29.1636 58.3637Z" fill="url(#paint4_radial_18_1114)"/>
<path d="M9.49889 49.1112C9.42394 49.1609 9.35283 49.2187 9.2868 49.2847C8.75426 49.8173 8.75426 50.6807 9.2868 51.2132C9.81933 51.7457 10.6827 51.7457 11.2153 51.2132C11.2813 51.1472 11.3391 51.0761 11.3888 51.0011L28.5715 31.9285L9.49889 49.1112Z" fill="url(#paint5_radial_18_1114)"/>
<path d="M2.13631 28.6636C2.04821 28.6458 1.95702 28.6364 1.86364 28.6364C1.11052 28.6364 0.5 29.2469 0.5 30C0.5 30.7531 1.11052 31.3636 1.86364 31.3636C1.95702 31.3636 2.04821 31.3542 2.13631 31.3364L27.7727 30L2.13631 28.6636Z" fill="url(#paint6_radial_18_1114)"/>
<path d="M11.3888 8.99889C11.3391 8.92394 11.2813 8.85283 11.2153 8.7868C10.6827 8.25426 9.81933 8.25426 9.2868 8.7868C8.75427 9.31933 8.75427 10.1827 9.2868 10.7153C9.35283 10.7813 9.42395 10.8391 9.4989 10.8888L28.5715 28.0715L11.3888 8.99889Z" fill="url(#paint7_radial_18_1114)"/>
<path d="M37.5625 7.86708C37.5952 7.80124 37.622 7.73116 37.6418 7.65736C37.8012 7.06217 37.448 6.45039 36.8528 6.29091C36.2576 6.13143 35.6459 6.48464 35.4864 7.07983C35.4666 7.15363 35.4547 7.22768 35.4502 7.3011L31.0775 27.8446L37.5625 7.86708Z" fill="url(#paint8_radial_18_1114)"/>
<path d="M51.1442 19.3436C51.214 19.3202 51.2824 19.2896 51.3486 19.2514C51.8822 18.9433 52.0651 18.2609 51.757 17.7273C51.4489 17.1936 50.7665 17.0108 50.2329 17.3189C50.1667 17.3571 50.106 17.4011 50.0509 17.4498L32.4325 28.8843L51.1442 19.3436Z" fill="url(#paint9_radial_18_1114)"/>
<path d="M52.6329 37.0625C52.6988 37.0952 52.7688 37.122 52.8426 37.1417C53.4378 37.3012 54.0496 36.948 54.2091 36.3528C54.3686 35.7576 54.0154 35.1459 53.4202 34.9864C53.3464 34.9666 53.2723 34.9547 53.1989 34.9502L32.6554 30.5775L52.6329 37.0625Z" fill="url(#paint10_radial_18_1114)"/>
<path d="M41.1564 50.6442C41.1798 50.714 41.2104 50.7824 41.2486 50.8486C41.5567 51.3822 42.2391 51.5651 42.7727 51.257C43.3064 50.9489 43.4892 50.2665 43.1811 49.7329C43.1429 49.6667 43.0989 49.606 43.0502 49.5509L31.6157 31.9325L41.1564 50.6442Z" fill="url(#paint11_radial_18_1114)"/>
<path d="M23.4375 52.1329C23.4048 52.1988 23.378 52.2688 23.3582 52.3426C23.1988 52.9378 23.552 53.5496 24.1472 53.7091C24.7424 53.8686 25.3541 53.5154 25.5136 52.9202C25.5334 52.8464 25.5453 52.7723 25.5498 52.6989L29.9225 32.1554L23.4375 52.1329Z" fill="url(#paint12_radial_18_1114)"/>
<path d="M9.85575 40.6564C9.78601 40.6798 9.71755 40.7104 9.65139 40.7486C9.11776 41.0567 8.93492 41.7391 9.24301 42.2727C9.5511 42.8064 10.2335 42.9892 10.7671 42.6811C10.8333 42.6429 10.894 42.5989 10.9491 42.5502L28.5675 31.1157L9.85575 40.6564Z" fill="url(#paint13_radial_18_1114)"/>
<path d="M8.36708 22.9375C8.30124 22.9047 8.23116 22.878 8.15736 22.8582C7.56217 22.6988 6.95039 23.052 6.79091 23.6472C6.63143 24.2424 6.98464 24.8541 7.57983 25.0136C7.65363 25.0334 7.72768 25.0453 7.8011 25.0498L28.3446 29.4225L8.36708 22.9375Z" fill="url(#paint14_radial_18_1114)"/>
<path d="M19.8436 9.35575C19.8202 9.28601 19.7896 9.21755 19.7514 9.15139C19.4433 8.61776 18.7609 8.43492 18.2273 8.74301C17.6936 9.0511 17.5108 9.73346 17.8189 10.2671C17.8571 10.3333 17.9011 10.394 17.9498 10.4491L29.3843 28.0675L19.8436 9.35575Z" fill="url(#paint15_radial_18_1114)"/>
<defs>
<radialGradient id="paint0_radial_18_1114" cx="0" cy="0" r="1" gradientUnits="userSpaceOnUse" gradientTransform="translate(30.5 30) rotate(90) scale(30)">
<stop stop-color="#FFF7F5" stop-opacity="0"/>
<stop offset="1" stop-color="#FFF7F5"/>
</radialGradient>
<radialGradient id="paint1_radial_18_1114" cx="0" cy="0" r="1" gradientUnits="userSpaceOnUse" gradientTransform="translate(30.5 30) rotate(90) scale(30)">
<stop stop-color="#FFF7F5" stop-opacity="0"/>
<stop offset="1" stop-color="#FFF7F5"/>
</radialGradient>
<radialGradient id="paint2_radial_18_1114" cx="0" cy="0" r="1" gradientUnits="userSpaceOnUse" gradientTransform="translate(30.5 30) rotate(90) scale(30)">
<stop stop-color="#FFF7F5" stop-opacity="0"/>
<stop offset="1" stop-color="#FFF7F5"/>
</radialGradient>
<radialGradient id="paint3_radial_18_1114" cx="0" cy="0" r="1" gradientUnits="userSpaceOnUse" gradientTransform="translate(30.5 30) rotate(90) scale(30)">
<stop stop-color="#FFF7F5" stop-opacity="0"/>
<stop offset="1" stop-color="#FFF7F5"/>
</radialGradient>
<radialGradient id="paint4_radial_18_1114" cx="0" cy="0" r="1" gradientUnits="userSpaceOnUse" gradientTransform="translate(30.5 30) rotate(90) scale(30)">
<stop stop-color="#FFF7F5" stop-opacity="0"/>
<stop offset="1" stop-color="#FFF7F5"/>
</radialGradient>
<radialGradient id="paint5_radial_18_1114" cx="0" cy="0" r="1" gradientUnits="userSpaceOnUse" gradientTransform="translate(30.5 30) rotate(90) scale(30)">
<stop stop-color="#FFF7F5" stop-opacity="0"/>
<stop offset="1" stop-color="#FFF7F5"/>
</radialGradient>
<radialGradient id="paint6_radial_18_1114" cx="0" cy="0" r="1" gradientUnits="userSpaceOnUse" gradientTransform="translate(30.5 30) rotate(90) scale(30)">
<stop stop-color="#FFF7F5" stop-opacity="0"/>
<stop offset="1" stop-color="#FFF7F5"/>
</radialGradient>
<radialGradient id="paint7_radial_18_1114" cx="0" cy="0" r="1" gradientUnits="userSpaceOnUse" gradientTransform="translate(30.5 30) rotate(90) scale(30)">
<stop stop-color="#FFF7F5" stop-opacity="0"/>
<stop offset="1" stop-color="#FFF7F5"/>
</radialGradient>
<radialGradient id="paint8_radial_18_1114" cx="0" cy="0" r="1" gradientUnits="userSpaceOnUse" gradientTransform="translate(30.5 30) rotate(90) scale(30)">
<stop stop-color="#FFF7F5" stop-opacity="0"/>
<stop offset="1" stop-color="#FFF7F5"/>
</radialGradient>
<radialGradient id="paint9_radial_18_1114" cx="0" cy="0" r="1" gradientUnits="userSpaceOnUse" gradientTransform="translate(30.5 30) rotate(90) scale(30)">
<stop stop-color="#FFF7F5" stop-opacity="0"/>
<stop offset="1" stop-color="#FFF7F5"/>
</radialGradient>
<radialGradient id="paint10_radial_18_1114" cx="0" cy="0" r="1" gradientUnits="userSpaceOnUse" gradientTransform="translate(30.5 30) rotate(90) scale(30)">
<stop stop-color="#FFF7F5" stop-opacity="0"/>
<stop offset="1" stop-color="#FFF7F5"/>
</radialGradient>
<radialGradient id="paint11_radial_18_1114" cx="0" cy="0" r="1" gradientUnits="userSpaceOnUse" gradientTransform="translate(30.5 30) rotate(90) scale(30)">
<stop stop-color="#FFF7F5" stop-opacity="0"/>
<stop offset="1" stop-color="#FFF7F5"/>
</radialGradient>
<radialGradient id="paint12_radial_18_1114" cx="0" cy="0" r="1" gradientUnits="userSpaceOnUse" gradientTransform="translate(30.5 30) rotate(90) scale(30)">
<stop stop-color="#FFF7F5" stop-opacity="0"/>
<stop offset="1" stop-color="#FFF7F5"/>
</radialGradient>
<radialGradient id="paint13_radial_18_1114" cx="0" cy="0" r="1" gradientUnits="userSpaceOnUse" gradientTransform="translate(30.5 30) rotate(90) scale(30)">
<stop stop-color="#FFF7F5" stop-opacity="0"/>
<stop offset="1" stop-color="#FFF7F5"/>
</radialGradient>
<radialGradient id="paint14_radial_18_1114" cx="0" cy="0" r="1" gradientUnits="userSpaceOnUse" gradientTransform="translate(30.5 30) rotate(90) scale(30)">
<stop stop-color="#FFF7F5" stop-opacity="0"/>
<stop offset="1" stop-color="#FFF7F5"/>
</radialGradient>
<radialGradient id="paint15_radial_18_1114" cx="0" cy="0" r="1" gradientUnits="userSpaceOnUse" gradientTransform="translate(30.5 30) rotate(90) scale(30)">
<stop stop-color="#FFF7F5" stop-opacity="0"/>
<stop offset="1" stop-color="#FFF7F5"/>
</radialGradient>
</defs>
</svg>
