<svg width="30" height="20" viewBox="0 0 30 20" fill="none" xmlns="http://www.w3.org/2000/svg">
<path fill-rule="evenodd" clip-rule="evenodd" d="M13.0222 17.9493C12.0834 18.3064 11.065 18.5019 10.0009 18.5019C5.30599 18.5019 1.5 14.6959 1.5 10.0009C1.5 5.306 5.30599 1.5 10.0009 1.5C11.065 1.5 12.0834 1.6955 13.0222 2.05253C10.6329 3.88009 9.0918 6.76054 9.0918 10.0009C9.0918 13.2413 10.6329 16.1218 13.0222 17.9493ZM14.5468 17.1856C12.1697 15.6784 10.5918 13.0239 10.5918 10.0009C10.5918 6.97795 12.1697 4.3235 14.5468 2.81629C16.9239 4.3235 18.5019 6.97795 18.5019 10.0009C18.5019 13.0239 16.9239 15.6784 14.5468 17.1856ZM14.5468 18.9114C13.1829 19.6086 11.6379 20.0019 10.0009 20.0019C4.47757 20.0019 0 15.5243 0 10.0009C0 4.47757 4.47757 0 10.0009 0C11.6379 0 13.1829 0.393276 14.5468 1.0905C15.9107 0.393276 17.4558 0 19.0927 0C24.6161 0 29.0936 4.47757 29.0936 10.0009C29.0936 15.5243 24.6161 20.0019 19.0927 20.0019C17.4558 20.0019 15.9107 19.6086 14.5468 18.9114ZM16.0715 2.05253C17.0103 1.6955 18.0287 1.5 19.0927 1.5C23.7877 1.5 27.5936 5.306 27.5936 10.0009C27.5936 14.6959 23.7877 18.5019 19.0927 18.5019C18.0287 18.5019 17.0103 18.3064 16.0715 17.9493C18.4608 16.1218 20.0019 13.2413 20.0019 10.0009C20.0019 6.76054 18.4608 3.88009 16.0715 2.05253Z" fill="#FEF9EF"/>
</svg>
