<svg width="17" height="21" viewBox="0 0 17 21" fill="none" xmlns="http://www.w3.org/2000/svg">
<path d="M8.86956 5.47826C8.83877 5.38587 8.82337 5.21648 8.82337 4.97011C8.82337 4.60054 8.88496 4.16938 9.00815 3.67663C9.16214 3.15308 9.39311 2.64492 9.70109 2.15217C10.1322 1.53623 10.6712 1.07427 11.3179 0.766302C11.9955 0.45833 12.442 0.35054 12.6576 0.442931C12.8732 0.689308 12.981 1.05887 12.981 1.55163C12.981 2.10598 12.8116 2.70652 12.4728 3.35326C12.1341 3.9692 11.6567 4.49275 11.0408 4.92391C10.4248 5.32427 9.70109 5.50905 8.86956 5.47826ZM5.3125 21C4.78895 21 4.31159 20.7998 3.88043 20.3995C3.44928 20.0299 2.98732 19.5525 2.49457 18.9674C1.75543 18.0743 1.15489 16.981 0.692935 15.6875C0.230978 14.394 0 13.0851 0 11.7609C0 10.3134 0.292572 9.05072 0.877717 7.97282C1.49366 6.80253 2.21739 6.048 3.04891 5.70924C3.88043 5.33967 4.55797 5.15489 5.08152 5.15489C5.3279 5.15489 5.54348 5.18569 5.72826 5.24728C5.94384 5.33967 6.25181 5.46286 6.65217 5.61684C7.08333 5.74003 7.49909 5.86322 7.89946 5.98641C8.17663 6.0788 8.43841 6.125 8.68478 6.125C8.83877 6.125 8.99275 6.1096 9.14674 6.0788C9.33152 6.01721 9.5009 5.97101 9.65489 5.94021C10.0245 5.84782 10.4094 5.74003 10.8098 5.61684C11.2409 5.46286 11.5643 5.33967 11.7799 5.24728C11.8415 5.21648 11.9493 5.18569 12.1033 5.15489C12.2572 5.12409 12.4266 5.10869 12.6114 5.10869C13.135 5.10869 13.7663 5.26268 14.5054 5.57065C15.2754 5.84782 15.9221 6.43297 16.4457 7.32608C15.9221 7.63405 15.4139 8.12681 14.9212 8.80434C14.4284 9.45108 14.1821 10.3134 14.1821 11.3913C14.1821 12.346 14.4438 13.1929 14.9674 13.9321C15.4909 14.6712 16.1685 15.2101 17 15.5489C16.7536 16.3496 16.3841 17.1812 15.8913 18.0435C15.4293 18.875 14.875 19.5679 14.2283 20.1223C13.6123 20.7074 12.9502 21 12.2418 21C11.7491 21 11.3487 20.9384 11.0408 20.8152C10.7636 20.692 10.548 20.5688 10.394 20.4456C9.96286 20.1993 9.42391 20.0761 8.77717 20.0761C8.13043 20.0761 7.59149 20.1993 7.16033 20.4456C7.00634 20.5688 6.79076 20.692 6.51359 20.8152C6.23641 20.9384 5.83605 21 5.3125 21Z" fill="black"/>
</svg>
