<svg width="47" height="32" viewBox="0 0 47 32" fill="none" xmlns="http://www.w3.org/2000/svg">
<path fill-rule="evenodd" clip-rule="evenodd" d="M22.2083 29.659C20.3164 30.5202 18.2142 31 16 31C7.71572 31 1 24.2843 1 16C1 7.71573 7.71572 1 16 1C18.2142 1 20.3164 1.47977 22.2083 2.34104C17.6123 5.15226 14.5453 10.218 14.5453 16C14.5453 21.782 17.6123 26.8477 22.2083 29.659ZM23.2726 29.1221C18.6641 26.5625 15.5453 21.6454 15.5453 16C15.5453 10.3546 18.6641 5.43753 23.2726 2.87786C27.8812 5.43753 31 10.3546 31 16C31 21.6454 27.8812 26.5625 23.2726 29.1221ZM23.2726 30.2554C21.0907 31.3708 18.6188 32 16 32C7.16344 32 0 24.8366 0 16C0 7.16344 7.16344 0 16 0C18.6188 0 21.0907 0.629161 23.2726 1.74458C25.4546 0.629161 27.9265 0 30.5453 0C39.3819 0 46.5453 7.16344 46.5453 16C46.5453 24.8366 39.3819 32 30.5453 32C27.9265 32 25.4546 31.3708 23.2726 30.2554ZM24.337 2.34104C26.2289 1.47977 28.3311 1 30.5453 1C38.8296 1 45.5453 7.71573 45.5453 16C45.5453 24.2843 38.8296 31 30.5453 31C28.3311 31 26.2289 30.5202 24.337 29.659C28.933 26.8477 32 21.782 32 16C32 10.218 28.933 5.15226 24.337 2.34104Z" fill="#131A31"/>
</svg>
