<svg width="174" height="45" viewBox="0 0 174 45" fill="none" xmlns="http://www.w3.org/2000/svg">
<path d="M129.999 9.99485V11.1956C129.999 11.31 129.918 11.4005 129.813 11.4244C128.557 11.715 127.367 12.7872 126.444 14.8504L116.841 36.5885C114.681 41.9158 111.792 44.5795 108.18 44.5795C106.729 44.5795 105.544 44.265 104.625 43.636C103.707 43.007 103.245 42.1731 103.245 41.1439C103.245 40.2385 103.545 39.4666 104.14 38.8185C104.735 38.1705 105.487 37.8512 106.391 37.8512C106.776 37.8512 107.148 37.9179 107.504 38.0466C107.861 38.1753 108.28 38.3516 108.761 38.5803C109.922 39.1616 110.936 39.4523 111.806 39.4523C112.611 39.4523 113.32 39.1759 113.934 38.6279C114.547 38.08 115.08 37.2222 115.528 36.0596L116.013 34.8969L106.772 14.9743C105.848 12.9158 104.782 11.7341 103.569 11.4291C103.46 11.4005 103.383 11.31 103.383 11.2004V9.99485C103.383 9.86143 103.488 9.7566 103.621 9.7566H115.866C115.999 9.7566 116.104 9.86143 116.104 9.99485V11.1766C116.104 11.2957 116.013 11.3958 115.894 11.4101C114.195 11.634 113.348 12.3202 113.348 13.4686C113.348 13.9212 113.462 14.4216 113.686 14.9695L119.297 27.3348L124.931 14.8457C125.221 14.1976 125.488 13.7878 125.488 13.3685C125.488 12.2868 124.703 11.634 123.132 11.4101C123.013 11.391 122.923 11.2957 122.923 11.1766V9.99008C122.923 9.85666 123.027 9.75183 123.161 9.75183H129.747C129.88 9.75183 129.985 9.85666 129.985 9.99008L129.999 9.99485Z" fill="#FAF6F4"/>
<path d="M48.2264 29.757C47.584 30.2526 46.9035 30.6052 46.1801 30.8196C45.4616 31.0341 44.8905 31.0531 44.4527 31.0626C43.6057 31.0865 42.2875 31.1246 40.8837 30.4384C39.4846 29.757 38.7375 28.723 38.2901 28.1036C37.4669 26.96 37.148 25.9212 36.8007 24.768C36.5056 23.7721 36.182 22.3331 36.1249 20.5415H51.4719C51.6004 20.5415 51.7098 20.4414 51.7146 20.3127C51.8288 17.2107 51.0864 13.8371 49.478 11.9596C47.8314 10.0393 45.3474 9.07678 42.0305 9.07678C39.6749 9.07678 37.5716 9.64382 35.7157 10.7731C33.8597 11.9024 32.4083 13.494 31.3614 15.5429C30.3145 17.5919 29.791 19.9411 29.791 22.5904C29.791 24.8205 30.2526 26.8789 31.1711 28.7659C32.0895 30.6529 33.46 32.1634 35.2826 33.2927C37.1052 34.422 39.3038 34.989 41.8878 34.989C44.4718 34.989 46.6179 34.2076 48.4405 32.6399C50.1965 31.1341 51.2863 29.0613 51.7098 26.6312C51.7336 26.4835 51.6194 26.35 51.4719 26.35H50.7581C50.6581 26.35 50.5677 26.4167 50.5344 26.512C50.0728 27.8463 49.3066 28.9279 48.2312 29.757H48.2264ZM36.6103 15.3333C36.7721 14.8234 36.9339 14.304 37.3194 13.6893C37.5811 13.27 38.057 12.5124 38.9421 12.0263C39.6083 11.6594 40.384 11.5117 40.5601 11.4831C40.8789 11.4259 42.711 11.1067 44.0768 12.2455C45.1808 13.1652 45.3664 14.5327 45.5663 16.0099C45.6995 16.9867 45.6614 17.8063 45.6091 18.3734H36.1297C36.1535 17.0487 36.4009 16.0147 36.6103 15.3333Z" fill="#FAF6F4"/>
<path d="M61.9147 20.618C60.0398 21.0039 58.1315 21.4233 56.4422 22.8575C55.6522 23.5294 55.2049 24.1679 55.0954 24.3299C54.2817 25.545 53.8772 27.0317 53.8772 28.79C53.8772 30.6007 54.5149 32.0922 55.7855 33.2691C57.0608 34.4461 58.6645 35.037 60.5965 35.037C62.2431 35.037 63.6993 34.5748 64.9746 33.6551C66.2499 32.7355 67.2064 31.4203 67.8536 29.7049V29.8478C67.8536 30.9772 68.1106 31.9397 68.6293 32.7307C69.1433 33.5217 69.7904 34.103 70.5661 34.4747C71.3418 34.8464 72.0984 35.0322 72.8408 35.0322C73.7735 35.0322 74.7348 34.7272 75.7198 34.1126C76.4146 33.6789 77.038 32.9689 77.5996 31.9873C77.6186 31.9492 77.6329 31.9063 77.6329 31.8635V30.7818C77.6329 30.5721 77.3854 30.4625 77.2331 30.6055C76.6145 31.1868 76.2243 31.325 75.6104 31.325C75.1583 31.325 74.7966 30.9819 74.5397 30.596C74.2827 30.21 74.1542 29.6763 74.1542 28.9997V17.8924C74.1542 15.1477 73.2976 12.9844 71.5893 11.4024C69.8809 9.82041 67.492 9.02942 64.4321 9.02942C62.205 9.02942 60.2967 9.3868 58.7026 10.0968C57.1084 10.8068 55.9044 11.7217 55.1002 12.8319C54.2912 13.9469 53.8915 15.1001 53.8915 16.2961C53.8915 17.2015 54.1389 17.8924 54.6434 18.3784C55.143 18.8644 55.7807 19.1027 56.5564 19.1027C57.3939 19.1027 58.0792 18.8835 58.6121 18.4499C59.1451 18.0163 59.5068 17.4063 59.5068 16.5629C59.5068 16.2484 59.464 15.7958 59.2641 15.324C59.0928 14.9285 58.931 14.8142 58.6693 14.5712C58.3647 14.29 58.241 13.6801 58.3219 13.3465C58.517 12.5698 59.5925 11.9266 59.897 11.7693C61.2104 11.0879 62.6285 11.1642 63.309 11.207C63.8944 11.2452 64.6272 11.2976 65.46 11.7169C65.7979 11.8837 66.4355 12.2172 66.9495 12.9177C67.3682 13.4895 67.5015 14.0279 67.6633 14.7332C67.8013 15.324 67.9393 16.2103 67.8727 17.311C67.8727 17.5779 67.768 18.1211 67.5253 18.5738C67.2826 19.0265 66.6973 19.3076 66.4688 19.4077C64.6653 20.1605 61.929 20.618 61.929 20.618H61.9147ZM67.8965 20.3702L67.8774 23.7915C67.8774 23.7915 67.8108 26.4123 67.8584 27.2128C67.4729 28.1801 66.94 28.9473 66.2642 29.5143C65.7074 29.9765 65.1602 30.1623 64.9365 30.2338C64.2893 30.4387 63.7659 30.4339 63.6231 30.4292C63.0425 30.4101 62.4239 30.2624 62.1765 30.1719C61.7672 30.0242 61.4769 29.8478 61.0296 29.3952C60.5632 28.9234 60.3919 28.404 60.2967 28.0991C60.0588 27.3462 60.1207 26.7172 60.1683 26.3265C60.2063 25.9834 60.292 25.2639 60.7298 24.511C61.2723 23.5723 62.048 23.1006 62.462 22.8575C63.9515 21.976 64.7652 21.957 66.3166 21.2994C67.5919 20.7562 67.906 20.3893 67.906 20.3893L67.8965 20.3702Z" fill="#FAF6F4"/>
<path d="M104.517 30.8298C104.517 30.6201 104.265 30.5057 104.118 30.6535C103.599 31.1633 103.109 31.3301 102.49 31.3301C102.038 31.3301 101.676 30.987 101.419 30.601C101.162 30.2151 101.034 29.6814 101.034 29.0048V0.238252C101.029 0.104831 100.924 0 100.791 0H92.0779C91.9446 0 91.84 0.104831 91.84 0.238252V1.37709C91.84 1.51528 91.9589 1.62011 92.0969 1.61058C92.9678 1.56293 93.615 1.72018 94.0433 2.09185C94.5096 2.49688 94.7428 3.27834 94.7428 4.44101V10.3878C93.1962 9.48242 91.5021 9.02974 89.6652 9.02974C87.3096 9.02974 85.2158 9.59678 83.3789 10.7261C81.542 11.8554 80.1049 13.4612 79.0722 15.5435C78.0396 17.6259 77.5256 20.0227 77.5256 22.734C77.5256 25.026 77.9301 27.1035 78.7344 28.9571C79.5386 30.8155 80.7188 32.2926 82.2654 33.3886C83.8119 34.4845 85.6679 35.0373 87.8283 35.0373C89.5034 35.0373 90.9643 34.5274 92.2064 33.5125C93.4484 32.4975 94.2955 31.211 94.7475 29.6623V29.8577C94.7475 30.987 95.0045 31.9495 95.5232 32.7405C96.0372 33.5315 96.6844 34.1129 97.46 34.4845C98.2357 34.8562 98.9923 35.0421 99.7347 35.0421C100.701 35.0421 101.676 34.7371 102.661 34.1224C103.347 33.6936 103.956 32.9979 104.493 32.0353C104.512 31.9972 104.527 31.9543 104.527 31.9114V30.8345L104.517 30.8298ZM94.7428 27.256C94.4525 28.2566 93.929 29.0715 93.1724 29.7005C92.4158 30.3294 91.5687 30.6439 90.6312 30.6439C88.5326 30.6439 86.9242 29.6099 85.7916 27.5419C84.6638 25.4739 84.0975 23.7966 84.0975 20.5992C84.0975 19.5319 84.2117 18.7409 84.245 18.5026C84.3497 17.7498 84.4924 16.7729 84.9636 15.615C85.2491 14.9146 85.6441 13.7805 86.7766 12.7179C87.7427 11.8125 88.6516 11.5266 88.8467 11.4742C89.1846 11.3837 89.5367 11.336 89.9031 11.336C91.4164 11.336 92.6013 12.0079 93.4579 13.3469C94.3097 14.6858 94.738 16.2916 94.738 18.1643V27.2512L94.7428 27.256Z" fill="#FAF6F4"/>
<path d="M31.1032 32.6279C30.851 32.5564 30.5416 32.4563 30.1943 32.3181C29.114 31.8941 28.3812 31.3794 27.9101 31.0506C27.3533 30.6599 26.5443 29.9976 25.9352 29.1351C23.789 26.1093 20.4008 20.4103 19.5632 18.9904C20.1628 18.8855 20.7101 18.7759 21.1859 18.6663C23.6034 18.1088 25.4117 16.8842 26.7013 15.3499C27.991 13.8155 28.6381 11.9524 28.6381 9.75572C28.6381 6.68704 27.4342 4.29976 25.0358 2.58911C22.6326 0.873697 19.2824 0.0159912 14.9948 0.0159912H0.237937C0.104692 0.0159912 0 0.125587 0 0.254243V1.43597C0 1.5551 0.0951749 1.65993 0.214144 1.66946C1.7417 1.841 2.80766 2.17932 3.41202 2.68917C4.04018 3.22286 4.35425 4.13298 4.35425 5.4243V28.8492C4.35425 30.1739 4.04969 31.1031 3.43582 31.6367C2.85049 32.1466 1.77501 32.4849 0.218902 32.6565C0.0999337 32.6708 0.00475875 32.7708 0.00475875 32.8899V34.0717C0.00475875 34.2051 0.109451 34.3099 0.242696 34.3099H15.0519C15.1852 34.3099 15.2899 34.2051 15.2899 34.0717V32.8899C15.2899 32.7708 15.1947 32.666 15.0757 32.6565C13.5482 32.4897 12.4822 32.1561 11.8826 31.6606C11.2544 31.1459 10.9404 30.2072 10.9404 28.8492V19.4859H12.3204L19.1016 30.4931L19.1873 30.6313C20.5863 32.9138 23.0704 34.3052 25.7448 34.3052H31.0461C31.1793 34.3052 31.284 34.2003 31.284 34.0669V32.8566C31.284 32.7518 31.2126 32.6565 31.1079 32.6279H31.1032ZM10.9308 2.32703H13.3959C13.9289 2.31274 17.5122 2.25556 19.6679 4.62854C20.5245 5.57202 21.0099 6.73469 21.0527 6.83475C21.1669 7.11589 21.6 8.22614 21.619 9.75572C21.6285 10.4324 21.638 11.4044 21.1812 12.5051C20.6958 13.6678 19.9201 14.3301 19.468 14.7828C17.6407 16.6126 14.9377 17.1796 13.3959 17.1796H10.9308V2.32703Z" fill="#FAF6F4"/>
<rect x="134" width="40" height="20" rx="10" fill="#FAF6F4"/>
<path d="M141.295 4.9H144.727C145.213 4.9 145.659 4.99967 146.066 5.199C146.474 5.39833 146.794 5.67567 147.028 6.031C147.271 6.37767 147.392 6.76333 147.392 7.188C147.392 7.63 147.258 8.046 146.989 8.436C146.729 8.826 146.422 9.07733 146.066 9.19C146.344 9.242 146.604 9.37633 146.846 9.593C147.098 9.80967 147.297 10.074 147.444 10.386C147.592 10.698 147.665 11.0143 147.665 11.335C147.665 11.8463 147.544 12.3057 147.301 12.713C147.059 13.1117 146.729 13.428 146.313 13.662C145.897 13.8873 145.438 14 144.935 14H141.295V4.9ZM144.831 12.778C145.256 12.778 145.611 12.6393 145.897 12.362C146.192 12.076 146.339 11.738 146.339 11.348C146.339 10.9233 146.196 10.581 145.91 10.321C145.624 10.0523 145.269 9.918 144.844 9.918H142.595V12.778H144.831ZM144.545 8.696C144.961 8.696 145.321 8.58333 145.624 8.358C145.928 8.124 146.079 7.812 146.079 7.422C146.079 7.06667 145.941 6.76333 145.663 6.512C145.395 6.252 145.065 6.122 144.675 6.122H142.595V8.696H144.545ZM152.206 14.143C151.513 14.143 150.889 13.987 150.334 13.675C149.788 13.363 149.355 12.934 149.034 12.388C148.722 11.8333 148.566 11.2093 148.566 10.516C148.566 9.84 148.722 9.22467 149.034 8.67C149.346 8.11533 149.771 7.682 150.308 7.37C150.846 7.04933 151.439 6.889 152.089 6.889C152.713 6.889 153.277 7.03633 153.779 7.331C154.291 7.617 154.694 8.01567 154.988 8.527C155.283 9.02967 155.43 9.58867 155.43 10.204C155.43 10.4553 155.417 10.646 155.391 10.776H149.814C149.875 11.4433 150.122 11.9763 150.555 12.375C150.989 12.7737 151.526 12.973 152.167 12.973C152.705 12.973 153.151 12.8603 153.506 12.635C153.862 12.401 154.083 12.076 154.169 11.66L155.456 11.79C155.274 12.5353 154.902 13.116 154.338 13.532C153.784 13.9393 153.073 14.143 152.206 14.143ZM154.078 9.697C154.061 9.21167 153.866 8.813 153.493 8.501C153.121 8.18033 152.648 8.02 152.076 8.02C151.522 8.02 151.049 8.17167 150.659 8.475C150.278 8.77833 150.022 9.18567 149.892 9.697H154.078ZM159.198 14.091C158.514 14.091 157.981 13.8873 157.599 13.48C157.218 13.064 157.027 12.4703 157.027 11.699V8.098H155.727V7.032H157.027V5.186H158.288V7.032H160.082V8.098H158.288V11.595C158.288 12.0803 158.388 12.4357 158.587 12.661C158.795 12.8777 159.068 12.986 159.406 12.986C159.632 12.986 159.801 12.96 159.913 12.908C160.035 12.856 160.1 12.8257 160.108 12.817L160.212 13.883C159.935 14.0217 159.597 14.091 159.198 14.091ZM165.661 12.83C165.419 13.2633 165.098 13.5927 164.699 13.818C164.309 14.0347 163.85 14.143 163.321 14.143C162.602 14.143 162.03 13.961 161.605 13.597C161.181 13.2243 160.968 12.7347 160.968 12.128C160.968 11.5907 161.111 11.166 161.397 10.854C161.683 10.542 162.047 10.3123 162.489 10.165C162.931 10.0177 163.508 9.88333 164.218 9.762C164.73 9.66667 165.159 9.567 165.505 9.463C165.471 9.047 165.293 8.70033 164.972 8.423C164.66 8.14567 164.275 8.007 163.815 8.007C163.321 8.007 162.923 8.13267 162.619 8.384C162.325 8.63533 162.169 8.97767 162.151 9.411L160.864 9.255C160.942 8.53567 161.246 7.96367 161.774 7.539C162.303 7.10567 162.983 6.889 163.815 6.889C164.396 6.889 164.92 7.01033 165.388 7.253C165.856 7.49567 166.225 7.83367 166.493 8.267C166.762 8.69167 166.896 9.177 166.896 9.723V12.115C166.896 13.0683 166.948 13.6967 167.052 14H165.661V12.83ZM162.294 12.05C162.294 12.3533 162.398 12.596 162.606 12.778C162.823 12.9513 163.118 13.038 163.49 13.038C163.889 13.038 164.24 12.9297 164.543 12.713C164.855 12.4963 165.094 12.1973 165.258 11.816C165.432 11.426 165.518 10.984 165.518 10.49V10.477C165.397 10.5637 165.228 10.6373 165.011 10.698C164.803 10.75 164.535 10.802 164.205 10.854C163.547 10.9753 163.061 11.1183 162.749 11.283C162.446 11.439 162.294 11.6947 162.294 12.05Z" fill="#111830"/>
</svg>
