<svg width="296" height="99" viewBox="0 0 296 99" fill="none" xmlns="http://www.w3.org/2000/svg">
<path d="M252 31.3729V33.7006C252 33.9223 251.843 34.0978 251.64 34.144C249.205 34.7074 246.899 36.7857 245.109 40.7853L226.494 82.9237C222.306 93.2505 216.707 98.4139 209.705 98.4139C206.892 98.4139 204.595 97.8043 202.814 96.585C201.034 95.3658 200.139 93.7493 200.139 91.7541C200.139 89.9991 200.72 88.5028 201.873 87.2466C203.026 85.9904 204.484 85.3715 206.237 85.3715C206.984 85.3715 207.703 85.5008 208.395 85.7502C209.087 85.9996 209.899 86.3414 210.831 86.7847C213.081 87.9116 215.046 88.4751 216.734 88.4751C218.293 88.4751 219.668 87.9393 220.858 86.8771C222.048 85.8149 223.081 84.1522 223.948 81.8984L224.889 79.6447L206.975 41.0254C205.185 37.0351 203.119 34.7444 200.766 34.1532C200.554 34.0978 200.407 33.9223 200.407 33.7099V31.3729C200.407 31.1143 200.61 30.9111 200.868 30.9111H224.603C224.861 30.9111 225.064 31.1143 225.064 31.3729V33.6637C225.064 33.8946 224.889 34.0886 224.658 34.1163C221.365 34.5504 219.723 35.8805 219.723 38.1066C219.723 38.9841 219.944 39.954 220.378 41.0162L231.254 64.9858L242.176 40.776C242.739 39.5198 243.255 38.7255 243.255 37.9126C243.255 35.8159 241.733 34.5504 238.689 34.1163C238.458 34.0793 238.283 33.8946 238.283 33.6637V31.3637C238.283 31.1051 238.486 30.9019 238.744 30.9019H251.511C251.77 30.9019 251.972 31.1051 251.972 31.3637L252 31.3729Z" fill="#FEF9EF"/>
<path d="M93.4868 69.6832C92.2415 70.6438 90.9223 71.3274 89.5202 71.743C88.1273 72.1587 87.0203 72.1956 86.1716 72.2141C84.5297 72.2603 81.9744 72.3342 79.2532 71.0041C76.5411 69.6832 75.0928 67.6788 74.2257 66.478C72.6299 64.2612 72.0118 62.2476 71.3384 60.0122C70.7665 58.0817 70.1392 55.2922 70.0285 51.8192H99.778C100.027 51.8192 100.239 51.6252 100.248 51.3758C100.47 45.3626 99.0308 38.8229 95.9129 35.1836C92.7211 31.4612 87.9059 29.5953 81.4763 29.5953C76.9101 29.5953 72.8328 30.6945 69.2352 32.8837C65.6376 35.0728 62.8241 38.1579 60.7946 42.1297C58.7652 46.1016 57.7505 50.6553 57.7505 55.791C57.7505 60.1138 58.6453 64.1042 60.4256 67.762C62.206 71.4197 64.8627 74.3478 68.3957 76.5369C71.9288 78.7261 76.1906 79.8253 81.1996 79.8253C86.2085 79.8253 90.3689 78.3104 93.9019 75.2715C97.3058 72.3527 99.4182 68.3346 100.239 63.6239C100.285 63.3375 100.064 63.0789 99.778 63.0789H98.3943C98.2006 63.0789 98.0253 63.2082 97.9608 63.3929C97.066 65.9792 95.5808 68.076 93.496 69.6832H93.4868ZM70.9694 41.7233C71.2831 40.735 71.5967 39.7281 72.3439 38.5366C72.8512 37.7238 73.7737 36.2551 75.4895 35.3129C76.781 34.6017 78.2846 34.3154 78.6259 34.2599C79.2439 34.1491 82.7954 33.5302 85.4429 35.7378C87.583 37.5205 87.9428 40.1715 88.3302 43.0349C88.5885 44.9285 88.5147 46.5172 88.4132 47.6164H70.0377C70.0838 45.0486 70.5635 43.0442 70.9694 41.7233Z" fill="#FEF9EF"/>
<path d="M120.018 51.9667C116.383 52.7149 112.684 53.5277 109.41 56.308C107.878 57.6104 107.011 58.8481 106.799 59.1622C105.222 61.5176 104.438 64.3995 104.438 67.8078C104.438 71.3178 105.674 74.209 108.137 76.4905C110.609 78.772 113.718 79.9173 117.463 79.9173C120.654 79.9173 123.477 79.0214 125.949 77.2387C128.422 75.456 130.276 72.9066 131.53 69.5813V69.8584C131.53 72.0476 132.028 73.9134 133.034 75.4467C134.03 76.98 135.285 78.1069 136.788 78.8274C138.292 79.5479 139.759 79.9081 141.198 79.9081C143.006 79.9081 144.869 79.317 146.779 78.1254C148.125 77.2848 149.334 75.9086 150.422 74.0058C150.459 73.9319 150.487 73.8487 150.487 73.7656V71.6688C150.487 71.2624 150.007 71.05 149.712 71.3271C148.513 72.454 147.756 72.7218 146.566 72.7218C145.69 72.7218 144.989 72.0568 144.491 71.3086C143.993 70.5604 143.744 69.5259 143.744 68.2143V46.6832C143.744 41.3628 142.083 37.1693 138.772 34.1026C135.46 31.036 130.829 29.5027 124.898 29.5027C120.581 29.5027 116.882 30.1954 113.791 31.5717C110.701 32.948 108.367 34.7215 106.808 36.8737C105.24 39.0351 104.465 41.2704 104.465 43.5889C104.465 45.3439 104.945 46.6832 105.923 47.6254C106.891 48.5675 108.127 49.0294 109.631 49.0294C111.255 49.0294 112.583 48.6045 113.616 47.7639C114.649 46.9234 115.35 45.741 115.35 44.1061C115.35 43.4965 115.267 42.619 114.88 41.7045C114.548 40.9379 114.234 40.7162 113.727 40.2451C113.136 39.7002 112.897 38.5178 113.053 37.8713C113.432 36.3657 115.516 35.1187 116.107 34.8139C118.653 33.493 121.402 33.6408 122.721 33.7239C123.855 33.7978 125.276 33.8994 126.89 34.7123C127.545 35.0356 128.781 35.6821 129.778 37.0399C130.589 38.1484 130.848 39.1921 131.161 40.5592C131.429 41.7045 131.696 43.4226 131.567 45.5563C131.567 46.0736 131.364 47.1266 130.894 48.0041C130.423 48.8816 129.289 49.4265 128.846 49.6205C125.35 51.0799 120.046 51.9667 120.046 51.9667H120.018ZM131.613 51.4864L131.576 58.1184C131.576 58.1184 131.447 63.1987 131.54 64.7505C130.792 66.6255 129.759 68.1127 128.449 69.2118C127.37 70.1078 126.309 70.4681 125.876 70.6066C124.621 71.0038 123.606 70.9946 123.33 70.9853C122.204 70.9484 121.005 70.662 120.525 70.4865C119.732 70.2002 119.169 69.8584 118.302 68.9809C117.398 68.0665 117.066 67.0597 116.882 66.4685C116.42 65.0091 116.54 63.7898 116.632 63.0324C116.706 62.3674 116.872 60.9726 117.721 59.5132C118.773 57.6935 120.276 56.7791 121.079 56.308C123.966 54.5992 125.544 54.5622 128.551 53.2875C131.023 52.2345 131.632 51.5233 131.632 51.5233L131.613 51.4864Z" fill="#FEF9EF"/>
<path d="M202.605 71.7623C202.605 71.3559 202.116 71.1342 201.83 71.4206C200.825 72.4089 199.874 72.7322 198.675 72.7322C197.799 72.7322 197.098 72.0672 196.6 71.319C196.102 70.5708 195.853 69.5363 195.853 68.2246V12.4618C195.843 12.2032 195.64 12 195.382 12H178.492C178.233 12 178.03 12.2032 178.03 12.4618V14.6694C178.03 14.9373 178.261 15.1405 178.529 15.1221C180.217 15.0297 181.471 15.3345 182.302 16.055C183.206 16.8401 183.658 18.3549 183.658 20.6087V32.1363C180.66 30.3813 177.376 29.5038 173.815 29.5038C169.249 29.5038 165.19 30.603 161.629 32.7921C158.068 34.9813 155.282 38.0941 153.281 42.1306C151.279 46.1671 150.283 50.8132 150.283 56.069C150.283 60.5119 151.067 64.5391 152.626 68.1323C154.185 71.7346 156.472 74.598 159.47 76.7225C162.468 78.847 166.066 79.9185 170.254 79.9185C173.501 79.9185 176.333 78.9301 178.741 76.9627C181.148 74.9952 182.79 72.5013 183.667 69.4993V69.878C183.667 72.0672 184.165 73.933 185.17 75.4663C186.167 76.9996 187.421 78.1265 188.925 78.847C190.428 79.5675 191.895 79.9277 193.334 79.9277C195.207 79.9277 197.098 79.3365 199.007 78.145C200.336 77.3137 201.516 75.9651 202.559 74.0993C202.596 74.0254 202.623 73.9422 202.623 73.8591V71.7716L202.605 71.7623ZM183.658 64.8347C183.095 66.7744 182.08 68.3539 180.613 69.5732C179.147 70.7925 177.505 71.4021 175.687 71.4021C171.619 71.4021 168.501 69.3977 166.306 65.3889C164.12 61.3801 163.022 58.1288 163.022 51.9308C163.022 49.8618 163.243 48.3285 163.308 47.8666C163.511 46.4072 163.788 44.5137 164.701 42.2691C165.254 40.9113 166.02 38.7129 168.215 36.6531C170.088 34.8981 171.85 34.3439 172.228 34.2423C172.883 34.0668 173.566 33.9744 174.276 33.9744C177.209 33.9744 179.506 35.2768 181.167 37.8724C182.818 40.4679 183.648 43.5807 183.648 47.2108V64.8255L183.658 64.8347Z" fill="#FEF9EF"/>
<path d="M60.2923 75.2473C59.8034 75.1088 59.2038 74.9148 58.5304 74.6469C56.4364 73.8248 55.0158 72.8273 54.1026 72.1899C53.0233 71.4325 51.4551 70.1486 50.2744 68.4767C46.114 62.6113 39.5461 51.5641 37.9226 48.8115C39.0849 48.6083 40.1457 48.3958 41.0682 48.1834C45.7543 47.1027 49.2597 44.7288 51.7595 41.7545C54.2594 38.7803 55.514 35.1687 55.514 30.9105C55.514 24.962 53.1801 20.3343 48.5309 17.0183C43.8725 13.693 37.3783 12.0304 29.0669 12.0304H0.461233C0.202942 12.0304 0 12.2428 0 12.4922V14.783C0 15.0139 0.184493 15.2171 0.415109 15.2356C3.37622 15.5681 5.44255 16.2239 6.61408 17.2123C7.83173 18.2468 8.44056 20.011 8.44056 22.5142V67.9225C8.44056 70.4903 7.85018 72.2915 6.6602 73.3261C5.52557 74.3144 3.4408 74.9702 0.424334 75.3027C0.193718 75.3304 0.00922465 75.5244 0.00922465 75.7553V78.0461C0.00922465 78.3047 0.212167 78.5079 0.470457 78.5079H29.1776C29.4359 78.5079 29.6388 78.3047 29.6388 78.0461V75.7553C29.6388 75.5244 29.4543 75.3212 29.2237 75.3027C26.2626 74.9794 24.1963 74.3329 23.034 73.3722C21.8163 72.3747 21.2075 70.555 21.2075 67.9225V49.7721H23.8826L37.0278 71.1092L37.1938 71.3771C39.9059 75.8015 44.7211 78.4987 49.9054 78.4987H60.1816C60.4399 78.4987 60.6429 78.2955 60.6429 78.0368V75.6907C60.6429 75.4875 60.5045 75.3027 60.3016 75.2473H60.2923ZM21.189 16.5103H25.9674C27.0006 16.4826 33.9467 16.3717 38.1255 20.9717C39.7859 22.8005 40.7268 25.0543 40.8099 25.2483C41.0313 25.7933 41.8707 27.9455 41.9076 30.9105C41.9261 32.2221 41.9445 34.1064 41.0589 36.2401C40.118 38.4939 38.6144 39.7779 37.7381 40.6554C34.1958 44.2023 28.9562 45.3015 25.9674 45.3015H21.189V16.5103Z" fill="#FEF9EF"/>
<rect x="248" width="48" height="24" rx="12" fill="#FEF9EF"/>
<path d="M257.341 6.5H261.301C261.861 6.5 262.376 6.615 262.846 6.845C263.316 7.075 263.686 7.395 263.956 7.805C264.236 8.205 264.376 8.65 264.376 9.14C264.376 9.65 264.221 10.13 263.911 10.58C263.611 11.03 263.256 11.32 262.846 11.45C263.166 11.51 263.466 11.665 263.746 11.915C264.036 12.165 264.266 12.47 264.436 12.83C264.606 13.19 264.691 13.555 264.691 13.925C264.691 14.515 264.551 15.045 264.271 15.515C263.991 15.975 263.611 16.34 263.131 16.61C262.651 16.87 262.121 17 261.541 17H257.341V6.5ZM261.421 15.59C261.911 15.59 262.321 15.43 262.651 15.11C262.991 14.78 263.161 14.39 263.161 13.94C263.161 13.45 262.996 13.055 262.666 12.755C262.336 12.445 261.926 12.29 261.436 12.29H258.841V15.59H261.421ZM261.091 10.88C261.571 10.88 261.986 10.75 262.336 10.49C262.686 10.22 262.861 9.86 262.861 9.41C262.861 9 262.701 8.65 262.381 8.36C262.071 8.06 261.691 7.91 261.241 7.91H258.841V10.88H261.091ZM269.93 17.165C269.13 17.165 268.41 16.985 267.77 16.625C267.14 16.265 266.64 15.77 266.27 15.14C265.91 14.5 265.73 13.78 265.73 12.98C265.73 12.2 265.91 11.49 266.27 10.85C266.63 10.21 267.12 9.71 267.74 9.35C268.36 8.98 269.045 8.795 269.795 8.795C270.515 8.795 271.165 8.965 271.745 9.305C272.335 9.635 272.8 10.095 273.14 10.685C273.48 11.265 273.65 11.91 273.65 12.62C273.65 12.91 273.635 13.13 273.605 13.28H267.17C267.24 14.05 267.525 14.665 268.025 15.125C268.525 15.585 269.145 15.815 269.885 15.815C270.505 15.815 271.02 15.685 271.43 15.425C271.84 15.155 272.095 14.78 272.195 14.3L273.68 14.45C273.47 15.31 273.04 15.98 272.39 16.46C271.75 16.93 270.93 17.165 269.93 17.165ZM272.09 12.035C272.07 11.475 271.845 11.015 271.415 10.655C270.985 10.285 270.44 10.1 269.78 10.1C269.14 10.1 268.595 10.275 268.145 10.625C267.705 10.975 267.41 11.445 267.26 12.035H272.09ZM277.998 17.105C277.208 17.105 276.593 16.87 276.153 16.4C275.713 15.92 275.493 15.235 275.493 14.345V10.19H273.993V8.96H275.493V6.83H276.948V8.96H279.018V10.19H276.948V14.225C276.948 14.785 277.063 15.195 277.293 15.455C277.533 15.705 277.848 15.83 278.238 15.83C278.498 15.83 278.693 15.8 278.823 15.74C278.963 15.68 279.038 15.645 279.048 15.635L279.168 16.865C278.848 17.025 278.458 17.105 277.998 17.105ZM285.455 15.65C285.175 16.15 284.805 16.53 284.345 16.79C283.895 17.04 283.365 17.165 282.755 17.165C281.925 17.165 281.265 16.955 280.775 16.535C280.285 16.105 280.04 15.54 280.04 14.84C280.04 14.22 280.205 13.73 280.535 13.37C280.865 13.01 281.285 12.745 281.795 12.575C282.305 12.405 282.97 12.25 283.79 12.11C284.38 12 284.875 11.885 285.275 11.765C285.235 11.285 285.03 10.885 284.66 10.565C284.3 10.245 283.855 10.085 283.325 10.085C282.755 10.085 282.295 10.23 281.945 10.52C281.605 10.81 281.425 11.205 281.405 11.705L279.92 11.525C280.01 10.695 280.36 10.035 280.97 9.545C281.58 9.045 282.365 8.795 283.325 8.795C283.995 8.795 284.6 8.935 285.14 9.215C285.68 9.495 286.105 9.885 286.415 10.385C286.725 10.875 286.88 11.435 286.88 12.065V14.825C286.88 15.925 286.94 16.65 287.06 17H285.455V15.65ZM281.57 14.75C281.57 15.1 281.69 15.38 281.93 15.59C282.18 15.79 282.52 15.89 282.95 15.89C283.41 15.89 283.815 15.765 284.165 15.515C284.525 15.265 284.8 14.92 284.99 14.48C285.19 14.03 285.29 13.52 285.29 12.95V12.935C285.15 13.035 284.955 13.12 284.705 13.19C284.465 13.25 284.155 13.31 283.775 13.37C283.015 13.51 282.455 13.675 282.095 13.865C281.745 14.045 281.57 14.34 281.57 14.75Z" fill="#111830"/>
</svg>
