<svg width="296" height="99" viewBox="0 0 296 99" fill="none" xmlns="http://www.w3.org/2000/svg">
<path d="M252 31.3734V33.7011C252 33.9228 251.843 34.0983 251.64 34.1445C249.205 34.7079 246.898 36.7862 245.109 40.7858L226.494 82.9242C222.306 93.251 216.706 98.4144 209.705 98.4144C206.891 98.4144 204.594 97.8048 202.814 96.5855C201.033 95.3662 200.139 93.7498 200.139 91.7546C200.139 89.9996 200.72 88.5033 201.873 87.2471C203.026 85.9908 204.483 85.372 206.236 85.372C206.983 85.372 207.703 85.5013 208.395 85.7507C209.087 86.0001 209.898 86.3418 210.83 86.7852C213.081 87.9121 215.046 88.4756 216.734 88.4756C218.293 88.4756 219.667 87.9398 220.857 86.8776C222.047 85.8153 223.08 84.1527 223.948 81.8989L224.888 79.6451L206.974 41.0259C205.185 37.0356 203.118 34.7449 200.766 34.1537C200.554 34.0983 200.406 33.9228 200.406 33.7103V31.3734C200.406 31.1148 200.609 30.9116 200.867 30.9116H224.602C224.861 30.9116 225.064 31.1148 225.064 31.3734V33.6642C225.064 33.8951 224.888 34.0891 224.658 34.1168C221.365 34.5509 219.723 35.881 219.723 38.1071C219.723 38.9846 219.944 39.9544 220.378 41.0167L231.253 64.9863L242.175 40.7765C242.738 39.5203 243.255 38.7259 243.255 37.9131C243.255 35.8163 241.733 34.5509 238.688 34.1168C238.458 34.0798 238.283 33.8951 238.283 33.6642V31.3642C238.283 31.1056 238.486 30.9023 238.744 30.9023H251.511C251.769 30.9023 251.972 31.1056 251.972 31.3642L252 31.3734Z" fill="#111830"/>
<path d="M93.4863 69.6836C92.241 70.6442 90.9219 71.3277 89.5197 71.7434C88.1268 72.1591 87.0198 72.196 86.1712 72.2145C84.5292 72.2607 81.9739 72.3346 79.2527 71.0045C76.5406 69.6836 75.0923 67.6792 74.2252 66.4784C72.6294 64.2616 72.0113 62.2479 71.3379 60.0126C70.766 58.0821 70.1387 55.2926 70.028 51.8195H99.7775C100.027 51.8195 100.239 51.6256 100.248 51.3762C100.469 45.363 99.0303 38.8233 95.9124 35.184C92.7207 31.4615 87.9054 29.5957 81.4758 29.5957C76.9096 29.5957 72.8323 30.6949 69.2347 32.884C65.6371 35.0731 62.8236 38.1583 60.7941 42.1301C58.7647 46.1019 57.75 50.6557 57.75 55.7914C57.75 60.1142 58.6448 64.1045 60.4252 67.7623C62.2055 71.4201 64.8622 74.3482 68.3953 76.5373C71.9283 78.7264 76.1901 79.8256 81.1991 79.8256C86.2081 79.8256 90.3684 78.3108 93.9014 75.2719C97.3053 72.353 99.4178 68.335 100.239 63.6242C100.285 63.3379 100.063 63.0792 99.7775 63.0792H98.3938C98.2001 63.0792 98.0248 63.2086 97.9603 63.3933C97.0655 65.9796 95.5803 68.0764 93.4955 69.6836H93.4863ZM70.9689 41.7237C71.2826 40.7353 71.5962 39.7285 72.3434 38.537C72.8508 37.7241 73.7732 36.2555 75.489 35.3133C76.7805 34.6021 78.2841 34.3157 78.6254 34.2603C79.2434 34.1495 82.7949 33.5306 85.4424 35.7382C87.5825 37.5209 87.9423 40.1719 88.3297 43.0353C88.588 44.9289 88.5142 46.5176 88.4127 47.6168H70.0372C70.0834 45.0489 70.563 43.0445 70.9689 41.7237Z" fill="#111830"/>
<path d="M120.018 51.9669C116.383 52.7151 112.684 53.5279 109.41 56.3082C107.878 57.6106 107.011 58.8484 106.799 59.1624C105.222 61.5178 104.438 64.3997 104.438 67.8081C104.438 71.3181 105.674 74.2092 108.137 76.4907C110.609 78.7722 113.718 79.9176 117.463 79.9176C120.654 79.9176 123.477 79.0216 125.949 77.2389C128.422 75.4562 130.276 72.9068 131.53 69.5816V69.8587C131.53 72.0478 132.028 73.9136 133.034 75.447C134.03 76.9803 135.285 78.1072 136.788 78.8276C138.292 79.5481 139.759 79.9084 141.198 79.9084C143.006 79.9084 144.869 79.3172 146.779 78.1256C148.125 77.2851 149.334 75.9088 150.422 74.006C150.459 73.9321 150.487 73.849 150.487 73.7659V71.6691C150.487 71.2627 150.007 71.0502 149.712 71.3273C148.513 72.4542 147.756 72.7221 146.566 72.7221C145.69 72.7221 144.989 72.057 144.491 71.3089C143.993 70.5607 143.744 69.5261 143.744 68.2145V46.6834C143.744 41.363 142.083 37.1695 138.772 34.1029C135.46 31.0362 130.829 29.5029 124.898 29.5029C120.581 29.5029 116.882 30.1957 113.791 31.572C110.701 32.9483 108.367 34.7217 106.808 36.8739C105.24 39.0353 104.465 41.2707 104.465 43.5891C104.465 45.3441 104.945 46.6834 105.923 47.6256C106.891 48.5678 108.127 49.0296 109.631 49.0296C111.255 49.0296 112.583 48.6047 113.616 47.7642C114.649 46.9236 115.35 45.7413 115.35 44.1064C115.35 43.4967 115.267 42.6192 114.88 41.7048C114.548 40.9381 114.234 40.7165 113.727 40.2454C113.136 39.7004 112.897 38.5181 113.053 37.8715C113.432 36.3659 115.516 35.1189 116.107 34.8141C118.653 33.4932 121.402 33.641 122.721 33.7242C123.855 33.7981 125.276 33.8997 126.89 34.7125C127.545 35.0358 128.781 35.6824 129.778 37.0402C130.589 38.1486 130.848 39.1924 131.161 40.5594C131.429 41.7048 131.696 43.4228 131.567 45.5566C131.567 46.0738 131.364 47.1268 130.894 48.0043C130.423 48.8818 129.289 49.4268 128.846 49.6208C125.35 51.0802 120.046 51.9669 120.046 51.9669H120.018ZM131.613 51.4866L131.576 58.1187C131.576 58.1187 131.447 63.1989 131.54 64.7507C130.792 66.6258 129.759 68.1129 128.449 69.2121C127.37 70.1081 126.309 70.4683 125.876 70.6069C124.621 71.004 123.606 70.9948 123.33 70.9856C122.204 70.9486 121.005 70.6623 120.525 70.4868C119.732 70.2004 119.169 69.8587 118.302 68.9812C117.398 68.0667 117.066 67.0599 116.882 66.4688C116.42 65.0093 116.54 63.7901 116.632 63.0327C116.706 62.3676 116.872 60.9728 117.721 59.5134C118.773 57.6938 120.276 56.7793 121.079 56.3082C123.966 54.5994 125.544 54.5625 128.551 53.2878C131.023 52.2348 131.632 51.5236 131.632 51.5236L131.613 51.4866Z" fill="#111830"/>
<path d="M202.605 71.7623C202.605 71.3559 202.117 71.1342 201.831 71.4206C200.825 72.4089 199.875 72.7322 198.676 72.7322C197.799 72.7322 197.098 72.0672 196.6 71.319C196.102 70.5708 195.853 69.5363 195.853 68.2246V12.4618C195.844 12.2032 195.641 12 195.383 12H178.492C178.234 12 178.031 12.2032 178.031 12.4618V14.6694C178.031 14.9373 178.262 15.1405 178.529 15.1221C180.217 15.0297 181.472 15.3345 182.302 16.055C183.206 16.8401 183.658 18.3549 183.658 20.6087V32.1363C180.66 30.3813 177.376 29.5038 173.815 29.5038C169.249 29.5038 165.19 30.603 161.63 32.7921C158.069 34.9813 155.283 38.0941 153.281 42.1306C151.279 46.1671 150.283 50.8132 150.283 56.069C150.283 60.5119 151.067 64.5391 152.626 68.1323C154.185 71.7346 156.473 74.598 159.471 76.7225C162.469 78.847 166.067 79.9185 170.255 79.9185C173.502 79.9185 176.334 78.9301 178.741 76.9627C181.149 74.9952 182.791 72.5013 183.667 69.4993V69.878C183.667 72.0672 184.165 73.933 185.171 75.4663C186.167 76.9996 187.422 78.1265 188.925 78.847C190.429 79.5675 191.896 79.9277 193.335 79.9277C195.207 79.9277 197.098 79.3365 199.008 78.145C200.336 77.3137 201.517 75.9651 202.559 74.0993C202.596 74.0254 202.624 73.9422 202.624 73.8591V71.7716L202.605 71.7623ZM183.658 64.8347C183.095 66.7744 182.081 68.3539 180.614 69.5732C179.147 70.7925 177.505 71.4021 175.688 71.4021C171.62 71.4021 168.502 69.3977 166.306 65.3889C164.12 61.3801 163.022 58.1288 163.022 51.9308C163.022 49.8618 163.244 48.3285 163.308 47.8666C163.511 46.4072 163.788 44.5137 164.701 42.2691C165.255 40.9113 166.02 38.7129 168.216 36.6531C170.089 34.8981 171.85 34.3439 172.229 34.2423C172.884 34.0668 173.566 33.9744 174.277 33.9744C177.21 33.9744 179.507 35.2768 181.167 37.8724C182.819 40.4679 183.649 43.5807 183.649 47.2108V64.8255L183.658 64.8347Z" fill="#111830"/>
<path d="M60.2923 75.2472C59.8034 75.1086 59.2038 74.9147 58.5304 74.6468C56.4364 73.8247 55.0158 72.8271 54.1026 72.1898C53.0233 71.4324 51.4551 70.1485 50.2744 68.4766C46.114 62.6112 39.5461 51.5639 37.9226 48.8114C39.0849 48.6082 40.1457 48.3957 41.0682 48.1833C45.7543 47.1025 49.2597 44.7287 51.7595 41.7544C54.2594 38.7802 55.514 35.1686 55.514 30.9104C55.514 24.9618 53.1801 20.3342 48.5309 17.0182C43.8725 13.6929 37.3783 12.0303 29.0669 12.0303H0.461233C0.202942 12.0303 0 12.2427 0 12.4921V14.7829C0 15.0138 0.184493 15.217 0.415109 15.2355C3.37622 15.568 5.44255 16.2238 6.61408 17.2121C7.83173 18.2467 8.44056 20.0109 8.44056 22.5141V67.9224C8.44056 70.4902 7.85018 72.2914 6.6602 73.3259C5.52557 74.3143 3.4408 74.9701 0.424334 75.3026C0.193718 75.3303 0.00922465 75.5243 0.00922465 75.7552V78.046C0.00922465 78.3046 0.212167 78.5078 0.470457 78.5078H29.1776C29.4359 78.5078 29.6388 78.3046 29.6388 78.046V75.7552C29.6388 75.5243 29.4543 75.3211 29.2237 75.3026C26.2626 74.9793 24.1963 74.3327 23.034 73.3721C21.8163 72.3745 21.2075 70.5549 21.2075 67.9224V49.772H23.8826L37.0278 71.1091L37.1938 71.377C39.9059 75.8014 44.7211 78.4986 49.9054 78.4986H60.1816C60.4399 78.4986 60.6429 78.2953 60.6429 78.0367V75.6906C60.6429 75.4874 60.5045 75.3026 60.3016 75.2472H60.2923ZM21.189 16.5101H25.9674C27.0006 16.4824 33.9467 16.3716 38.1255 20.9715C39.7859 22.8004 40.7268 25.0542 40.8099 25.2482C41.0313 25.7932 41.8707 27.9453 41.9076 30.9104C41.9261 32.222 41.9445 34.1063 41.0589 36.24C40.118 38.4938 38.6144 39.7777 37.7381 40.6552C34.1958 44.2022 28.9562 45.3014 25.9674 45.3014H21.189V16.5101Z" fill="#111830"/>
<rect x="248" width="48" height="24" rx="12" fill="#111830"/>
<path d="M257.341 6.5H261.301C261.861 6.5 262.376 6.615 262.846 6.845C263.316 7.075 263.686 7.395 263.956 7.805C264.236 8.205 264.376 8.65 264.376 9.14C264.376 9.65 264.221 10.13 263.911 10.58C263.611 11.03 263.256 11.32 262.846 11.45C263.166 11.51 263.466 11.665 263.746 11.915C264.036 12.165 264.266 12.47 264.436 12.83C264.606 13.19 264.691 13.555 264.691 13.925C264.691 14.515 264.551 15.045 264.271 15.515C263.991 15.975 263.611 16.34 263.131 16.61C262.651 16.87 262.121 17 261.541 17H257.341V6.5ZM261.421 15.59C261.911 15.59 262.321 15.43 262.651 15.11C262.991 14.78 263.161 14.39 263.161 13.94C263.161 13.45 262.996 13.055 262.666 12.755C262.336 12.445 261.926 12.29 261.436 12.29H258.841V15.59H261.421ZM261.091 10.88C261.571 10.88 261.986 10.75 262.336 10.49C262.686 10.22 262.861 9.86 262.861 9.41C262.861 9 262.701 8.65 262.381 8.36C262.071 8.06 261.691 7.91 261.241 7.91H258.841V10.88H261.091ZM269.93 17.165C269.13 17.165 268.41 16.985 267.77 16.625C267.14 16.265 266.64 15.77 266.27 15.14C265.91 14.5 265.73 13.78 265.73 12.98C265.73 12.2 265.91 11.49 266.27 10.85C266.63 10.21 267.12 9.71 267.74 9.35C268.36 8.98 269.045 8.795 269.795 8.795C270.515 8.795 271.165 8.965 271.745 9.305C272.335 9.635 272.8 10.095 273.14 10.685C273.48 11.265 273.65 11.91 273.65 12.62C273.65 12.91 273.635 13.13 273.605 13.28H267.17C267.24 14.05 267.525 14.665 268.025 15.125C268.525 15.585 269.145 15.815 269.885 15.815C270.505 15.815 271.02 15.685 271.43 15.425C271.84 15.155 272.095 14.78 272.195 14.3L273.68 14.45C273.47 15.31 273.04 15.98 272.39 16.46C271.75 16.93 270.93 17.165 269.93 17.165ZM272.09 12.035C272.07 11.475 271.845 11.015 271.415 10.655C270.985 10.285 270.44 10.1 269.78 10.1C269.14 10.1 268.595 10.275 268.145 10.625C267.705 10.975 267.41 11.445 267.26 12.035H272.09ZM277.998 17.105C277.208 17.105 276.593 16.87 276.153 16.4C275.713 15.92 275.493 15.235 275.493 14.345V10.19H273.993V8.96H275.493V6.83H276.948V8.96H279.018V10.19H276.948V14.225C276.948 14.785 277.063 15.195 277.293 15.455C277.533 15.705 277.848 15.83 278.238 15.83C278.498 15.83 278.693 15.8 278.823 15.74C278.963 15.68 279.038 15.645 279.048 15.635L279.168 16.865C278.848 17.025 278.458 17.105 277.998 17.105ZM285.455 15.65C285.175 16.15 284.805 16.53 284.345 16.79C283.895 17.04 283.365 17.165 282.755 17.165C281.925 17.165 281.265 16.955 280.775 16.535C280.285 16.105 280.04 15.54 280.04 14.84C280.04 14.22 280.205 13.73 280.535 13.37C280.865 13.01 281.285 12.745 281.795 12.575C282.305 12.405 282.97 12.25 283.79 12.11C284.38 12 284.875 11.885 285.275 11.765C285.235 11.285 285.03 10.885 284.66 10.565C284.3 10.245 283.855 10.085 283.325 10.085C282.755 10.085 282.295 10.23 281.945 10.52C281.605 10.81 281.425 11.205 281.405 11.705L279.92 11.525C280.01 10.695 280.36 10.035 280.97 9.545C281.58 9.045 282.365 8.795 283.325 8.795C283.995 8.795 284.6 8.935 285.14 9.215C285.68 9.495 286.105 9.885 286.415 10.385C286.725 10.875 286.88 11.435 286.88 12.065V14.825C286.88 15.925 286.94 16.65 287.06 17H285.455V15.65ZM281.57 14.75C281.57 15.1 281.69 15.38 281.93 15.59C282.18 15.79 282.52 15.89 282.95 15.89C283.41 15.89 283.815 15.765 284.165 15.515C284.525 15.265 284.8 14.92 284.99 14.48C285.19 14.03 285.29 13.52 285.29 12.95V12.935C285.15 13.035 284.955 13.12 284.705 13.19C284.465 13.25 284.155 13.31 283.775 13.37C283.015 13.51 282.455 13.675 282.095 13.865C281.745 14.045 281.57 14.34 281.57 14.75Z" fill="#FAF6F4"/>
</svg>
