<svg width="114" height="111" viewBox="0 0 114 111" fill="none" xmlns="http://www.w3.org/2000/svg">
<path d="M86.6268 84.446C93.832 77.2408 99.2863 69.6798 102.288 63.2941C103.79 60.0993 104.666 57.2241 104.855 54.8501C105.045 52.4735 104.544 50.6692 103.383 49.5083C102.222 48.3474 100.418 47.8463 98.0411 48.0359C95.667 48.2253 92.7919 49.1011 89.597 50.603C83.2114 53.6048 75.6504 59.0592 68.4451 66.2644C61.2399 73.4696 55.7856 81.0306 52.7837 87.4163C51.2819 90.6112 50.4061 93.4863 50.2167 95.8603C50.0271 98.2369 50.5281 100.041 51.689 101.202C52.8499 102.363 54.6543 102.864 57.0308 102.674C59.4049 102.485 62.28 101.609 65.4749 100.107C71.8606 97.1056 79.4216 91.6512 86.6268 84.446Z" stroke="white"/>
<path d="M45.2654 66.2644C52.4706 73.4696 57.925 81.0306 60.9268 87.4163C62.4287 90.6112 63.3045 93.4863 63.4939 95.8603C63.6835 98.2369 63.1825 100.041 62.0215 101.202C60.8606 102.363 59.0563 102.864 56.6797 102.675C54.3057 102.485 51.4306 101.609 48.2357 100.107C41.85 97.1056 34.289 91.6513 27.0838 84.446C19.8786 77.2408 14.4242 69.6798 11.4224 63.2942C9.92055 60.0993 9.04474 57.2241 8.85535 54.8501C8.66576 52.4736 9.16678 50.6692 10.3277 49.5083C11.4886 48.3474 13.2929 47.8464 15.6695 48.036C18.0435 48.2254 20.9187 49.1012 24.1135 50.603C30.4992 53.6048 38.0602 59.0592 45.2654 66.2644Z" stroke="white"/>
<path d="M45.2654 45.1228C52.4706 37.9176 57.925 30.3566 60.9268 23.9709C62.4287 20.776 63.3045 17.9009 63.4939 15.5269C63.6835 13.1503 63.1825 11.346 62.0215 10.185C60.8606 9.02413 59.0563 8.5231 56.6797 8.71269C54.3057 8.90208 51.4306 9.77789 48.2357 11.2798C41.85 14.2816 34.289 19.736 27.0838 26.9412C19.8786 34.1464 14.4242 41.7074 11.4224 48.093C9.92055 51.2879 9.04474 54.1631 8.85535 56.5371C8.66576 58.9136 9.16678 60.718 10.3277 61.8789C11.4886 63.0398 13.2929 63.5408 15.6695 63.3512C18.0435 63.1618 20.9187 62.286 24.1135 60.7842C30.4992 57.7824 38.0602 52.328 45.2654 45.1228Z" stroke="white"/>
<path d="M86.6268 26.9412C93.832 34.1464 99.2863 41.7074 102.288 48.0931C103.79 51.288 104.666 54.1631 104.855 56.5371C105.045 58.9137 104.544 60.718 103.383 61.8789C102.222 63.0398 100.418 63.5409 98.0411 63.3513C95.667 63.1619 92.7919 62.2861 89.597 60.7842C83.2114 57.7824 75.6504 52.328 68.4451 45.1228C61.2399 37.9176 55.7856 30.3566 52.7837 23.9709C51.2819 20.776 50.4061 17.9009 50.2167 15.5269C50.0271 13.1503 50.5281 11.346 51.689 10.1851C52.8499 9.02416 54.6543 8.52313 57.0308 8.71273C59.4049 8.90212 62.28 9.77792 65.4749 11.2798C71.8606 14.2816 79.4216 19.736 86.6268 26.9412Z" stroke="white"/>
</svg>
